<?xml version="1.0" standalone="no"?>
<!DOCTYPE svg PUBLIC "-//W3C//DTD SVG 20010904//EN"
 "http://www.w3.org/TR/2001/REC-SVG-20010904/DTD/svg10.dtd">
<svg version="1.0" xmlns="http://www.w3.org/2000/svg"
 width="165.000000pt" height="163.000000pt" viewBox="0 0 165.000000 163.000000"
 preserveAspectRatio="xMidYMid meet">

<g transform="translate(0.000000,163.000000) scale(0.100000,-0.100000)"
fill="#000000" stroke="none">
<path d="M775 1601 c-330 -72 -580 -270 -715 -567 -24 -54 -26 -63 -13 -69 19
-7 14 -14 56 75 41 88 110 182 193 264 193 192 459 296 719 282 67 -3 149 -15
209 -31 77 -19 102 -22 113 -13 20 16 -27 35 -150 59 -124 24 -301 24 -412 0z"/>
<path d="M790 1510 c-297 -65 -527 -250 -646 -517 l-23 -53 23 0 c16 0 25 9
35 38 24 66 102 175 185 258 176 176 364 254 611 254 81 0 233 -21 256 -36 5
-3 18 1 30 9 27 19 19 24 -93 47 -118 25 -264 25 -378 0z"/>
<path d="M870 1423 c-112 -19 -244 -70 -340 -131 -88 -56 -209 -187 -258 -279
-47 -89 -50 -103 -24 -103 11 0 30 25 54 73 92 177 277 325 478 383 75 21 290
26 352 7 30 -9 39 -8 49 4 10 12 10 16 -1 23 -37 23 -227 37 -310 23z"/>
<path d="M920 1323 c-258 -28 -488 -187 -576 -398 -12 -30 -12 -34 4 -37 12
-3 27 15 55 64 68 123 195 233 339 294 56 24 79 28 205 32 102 3 146 8 154 18
8 10 6 14 -13 18 -39 8 -131 13 -168 9z"/>
<path d="M994 1166 c47 -44 48 -44 25 -57 -16 -8 -24 -8 -27 -1 -2 6 -27 29
-57 52 -49 37 -58 41 -92 35 -66 -11 -67 -14 -32 -96 17 -41 32 -75 33 -76 1
-2 26 6 54 17 66 25 74 25 70 -2 -2 -14 -15 -25 -43 -35 -55 -19 -59 -25 -41
-68 12 -28 13 -41 5 -51 -18 -22 -26 -17 -46 31 -10 25 -22 45 -26 45 -11 0
-61 -26 -128 -66 l-56 -34 9 -54 c4 -30 18 -86 31 -124 l22 -70 80 38 c44 21
82 37 84 34 2 -2 -1 -15 -7 -29 -8 -17 -33 -35 -72 -53 -33 -15 -60 -31 -60
-36 0 -4 14 -28 30 -53 29 -42 40 -93 21 -93 -5 0 -26 26 -48 57 -21 31 -41
61 -44 66 -6 9 -189 -72 -189 -85 0 -4 24 -32 53 -63 l52 -57 85 15 c77 14 86
13 98 -1 20 -26 15 -30 -48 -37 -33 -4 -62 -10 -65 -15 -13 -21 178 -79 260
-79 l40 0 -27 20 c-16 11 -28 27 -28 35 0 9 -11 14 -33 14 -39 0 -82 37 -91
77 -7 31 12 117 45 203 72 188 80 220 55 220 -7 0 -34 -18 -60 -41 -29 -26
-52 -39 -62 -35 -13 5 -13 9 4 33 36 49 104 115 150 144 79 50 156 33 186 -40
l16 -41 35 18 c19 9 35 22 35 27 0 6 -16 34 -36 63 -28 43 -33 56 -24 68 16
18 21 14 66 -53 20 -32 38 -59 40 -61 1 -2 45 17 99 43 l96 45 -29 38 c-66 83
-67 83 -165 70 -78 -10 -89 -10 -104 5 -22 22 -16 26 43 33 103 12 105 13 49
42 -63 32 -175 62 -234 62 l-46 0 49 -44z m92 -62 c46 -12 58 -91 19 -129 -49
-49 -125 -16 -125 55 0 58 46 90 106 74z"/>
<path d="M684 1135 c-23 -14 -44 -35 -48 -47 -7 -28 -8 -168 -1 -168 3 0 23
11 45 25 22 14 58 32 80 41 22 9 40 18 40 20 0 11 -65 154 -70 154 -3 0 -24
-11 -46 -25z"/>
<path d="M524 996 c-50 -68 -80 -133 -93 -204 l-9 -43 28 23 c15 13 53 43 84
68 l56 45 0 88 c0 48 -4 87 -9 87 -6 0 -31 -29 -57 -64z"/>
<path d="M1430 909 c-8 -5 -50 -25 -93 -46 -68 -32 -78 -39 -72 -57 17 -56 45
-179 45 -197 0 -10 4 -19 8 -19 12 0 154 125 165 145 11 20 -6 122 -25 158 -9
18 -17 22 -28 16z"/>
<path d="M549 794 c-19 -15 -55 -47 -80 -72 -44 -41 -47 -47 -42 -86 4 -37 32
-126 39 -126 4 0 84 35 137 60 41 19 48 26 42 44 -3 12 -16 60 -29 108 -12 48
-25 90 -28 93 -3 3 -21 -6 -39 -21z"/>
<path d="M1175 789 c-16 -11 -39 -18 -50 -17 -16 3 -24 -10 -46 -72 -14 -41
-40 -114 -58 -162 -48 -135 -40 -152 38 -82 33 29 57 44 67 40 13 -5 13 -9 -4
-33 -35 -50 -126 -135 -164 -154 -36 -19 -53 -34 -25 -23 7 2 31 -9 53 -26 35
-28 43 -31 84 -25 54 8 65 17 52 41 -5 11 -19 40 -30 66 l-21 47 34 37 c19 21
35 41 35 45 0 4 24 19 53 34 79 41 80 43 74 96 -7 57 -48 209 -56 208 -3 0
-19 -9 -36 -20z m-117 -315 c-14 -14 -16 -13 -22 11 -4 15 -4 36 0 48 6 20 8
20 22 -11 14 -29 14 -34 0 -48z"/>
<path d="M1462 647 c-12 -12 -48 -43 -81 -67 l-60 -45 -1 -82 c0 -46 4 -83 9
-83 17 0 81 86 111 149 27 55 53 141 46 148 -1 2 -12 -7 -24 -20z"/>
<path d="M1188 452 c-37 -21 -68 -41 -68 -47 0 -5 12 -38 27 -72 30 -69 38
-71 94 -32 22 15 27 29 33 80 9 89 8 109 -6 108 -7 0 -43 -17 -80 -37z"/>
<path d="M52 177 c-49 -52 -16 -147 51 -147 60 0 75 9 79 46 4 33 3 34 -34 34
-21 0 -38 -4 -38 -10 0 -5 9 -10 21 -10 32 0 20 -34 -14 -38 -41 -5 -57 14
-57 64 0 39 3 46 26 55 20 7 32 6 51 -6 31 -21 50 -9 27 16 -25 28 -85 25
-112 -4z"/>
<path d="M552 188 c-22 -22 -14 -57 18 -73 16 -8 35 -15 43 -15 16 0 30 -27
21 -41 -9 -15 -46 -10 -66 8 -22 19 -37 9 -22 -15 6 -10 27 -18 47 -20 101 -9
105 79 5 102 -30 7 -38 33 -13 42 8 4 26 -1 40 -10 30 -20 35 -20 35 -1 0 31
-83 48 -108 23z"/>
<path d="M1131 167 c-5 -13 -6 -48 -3 -78 6 -46 10 -54 30 -57 25 -4 30 13 6
22 -19 7 -15 63 6 76 13 8 12 11 -4 23 -11 8 -16 19 -12 25 4 7 2 12 -4 12 -6
0 -14 -10 -19 -23z"/>
<path d="M230 131 c-14 -26 -13 -74 2 -89 14 -14 57 -16 78 -2 8 5 11 12 7 17
-4 4 -16 3 -25 -3 -21 -13 -42 -7 -42 12 0 10 12 14 41 14 37 0 40 2 33 23
-10 35 -24 47 -55 47 -18 0 -32 -7 -39 -19z m54 -7 c25 -9 19 -24 -9 -24 -24
0 -32 10 -18 23 8 8 8 8 27 1z"/>
<path d="M371 131 c-25 -25 -27 -49 -5 -79 24 -34 84 -28 102 11 30 63 -48
117 -97 68z m71 -26 c8 -19 8 -28 -2 -40 -30 -36 -66 -5 -49 43 11 29 37 28
51 -3z"/>
<path d="M708 74 c2 -41 8 -74 13 -74 5 0 9 8 9 19 0 15 7 18 37 17 32 -1 38
3 47 26 6 18 6 38 0 55 -8 25 -14 28 -59 29 l-50 2 3 -74z m66 50 c21 -8 21
-63 1 -70 -33 -13 -59 38 -33 64 14 14 12 14 32 6z"/>
<path d="M860 134 c-8 -8 -13 -28 -13 -44 0 -38 19 -60 52 -60 31 0 59 16 48
27 -4 4 -16 3 -25 -3 -21 -13 -42 -7 -42 12 0 10 12 14 39 14 36 0 39 2 34 23
-3 12 -10 28 -16 35 -13 17 -62 15 -77 -4z m68 -21 c2 -9 -7 -13 -28 -13 -28
0 -31 2 -20 15 15 18 41 16 48 -2z"/>
<path d="M1000 131 c-14 -26 -13 -74 2 -89 17 -17 64 -15 84 5 23 23 -1 31
-25 9 -17 -16 -20 -16 -35 -1 -36 36 -9 81 41 69 25 -7 27 -6 14 9 -19 23 -68
22 -81 -2z"/>
<path d="M1210 88 c0 -32 4 -58 10 -58 6 0 10 14 10 31 0 38 16 69 35 69 8 0
15 4 15 9 0 5 -16 9 -35 8 l-35 -1 0 -58z"/>
<path d="M1312 93 l3 -58 50 -1 50 -1 0 58 c1 42 -3 59 -12 59 -9 0 -13 -15
-13 -44 0 -51 -20 -76 -45 -56 -9 8 -15 30 -15 56 0 24 -5 44 -10 44 -7 0 -10
-22 -8 -57z"/>
<path d="M1450 89 c0 -45 3 -59 14 -59 11 0 16 14 18 48 3 40 6 47 26 50 20 3
22 0 22 -47 0 -28 5 -51 10 -51 6 0 10 15 10 33 0 41 21 73 44 64 11 -5 16
-19 16 -52 0 -25 5 -45 10 -45 7 0 10 22 8 58 l-3 57 -87 1 -88 1 0 -58z"/>
</g>
</svg>
