<?xml version="1.0" encoding="UTF-8"?>
<!DOCTYPE svg PUBLIC "-//W3C//DTD SVG 1.1//EN" "http://www.w3.org/Graphics/SVG/1.1/DTD/svg11.dtd">
<!-- Creator: CorelDRAW 2020 (64-Bit) -->
<svg xmlns="http://www.w3.org/2000/svg" xml:space="preserve" width="148px" height="200px" version="1.1" style="shape-rendering:geometricPrecision; text-rendering:geometricPrecision; image-rendering:optimizeQuality; fill-rule:evenodd; clip-rule:evenodd"
viewBox="0 0 148 200.68"
 xmlns:xlink="http://www.w3.org/1999/xlink"
 xmlns:xodm="http://www.corel.com/coreldraw/odm/2003"
 xmlns:dc="http://purl.org/dc/elements/1.1/"
 xmlns:cc="http://creativecommons.org/ns#"
 xmlns:rdf="http://www.w3.org/1999/02/22-rdf-syntax-ns#"
 xmlns:svg="http://www.w3.org/2000/svg"
 xmlns:sodipodi="http://sodipodi.sourceforge.net/DTD/sodipodi-0.dtd"
 xmlns:inkscape="http://www.inkscape.org/namespaces/inkscape"
 sodipodi:docname="KFZO-logo-b.svg"
 inkscape:version="0.92.1 r15371">
 <defs>
  <style type="text/css">
   <![CDATA[
    .fil1 {fill:#00AFEF;fill-rule:nonzero}
    .fil0 {fill:#78B0F0;fill-rule:nonzero}
   ]]>
  </style>
 </defs>
 <g id="Layer_x0020_1">
  <metadata id="CorelCorpID_0Corel-Layer"/>
  <sodipodi:namedview pagecolor="#ffffff" bordercolor="#666666" borderopacity="1" objecttolerance="10" gridtolerance="10" guidetolerance="10" inkscape:pageopacity="0" inkscape:pageshadow="2" inkscape:window-width="1920" inkscape:window-height="1027" id="namedview223" showgrid="false" inkscape:zoom="11.313708" inkscape:cx="225.62293" inkscape:cy="236.82671" inkscape:window-x="-8" inkscape:window-y="-8" inkscape:window-maximized="1" inkscape:current-layer="Layer_1"/>
  <path id="path6" class="fil0" d="M125.97 33.11c-3.98,-1.83 -8.1,-2.61 -12.44,-2.19 -6.69,0.63 -12.54,3.08 -16.99,8.26 -2.51,2.92 -3.97,6.32 -4.23,10.24 -0.37,5.17 0.84,9.98 3.92,14.16 2.61,3.55 6.32,5.44 10.66,5.85 5.7,0.58 10.77,-0.99 14.79,-5.22 2.87,-3.03 3.87,-6.74 3.4,-10.87 -0.26,-2.35 -1.1,-4.55 -2.15,-6.64 -0.1,-0.26 -0.31,-0.47 -0.31,-0.89 2.56,0.16 4.7,1.15 6.59,2.77 2.3,2.04 3.81,4.6 5.07,7.37 1.04,2.4 1.46,4.91 1.98,7.47 0.22,1.57 0.28,3.23 0.37,4.76 -0.21,5.9 -0.58,11.71 -2.25,17.4 -2.46,8.15 -6.38,15.52 -11.76,22.06 -0.26,0.31 -0.52,0.52 -0.68,0.88 -0.42,0.84 -1.2,1.36 -1.78,2.04l0 0c0,0.16 -0.1,0.26 -0.26,0.32l0 0c-0.05,0.15 -0.15,0.2 -0.26,0.26l0 0c-0.15,0.47 -0.57,0.78 -0.99,0.99l0 0c-0.89,1.41 -2.25,2.3 -3.5,3.29l0 0c-0.42,0.52 -0.94,0.94 -1.52,1.26l0 0c-0.05,0.41 -0.47,0.36 -0.68,0.57 -2.19,1.52 -4.33,3.14 -6.63,4.5 -7.01,4.12 -14.48,6.84 -22.48,8.1 -4.49,0.68 -9.04,0.94 -13.58,0.62 -12.86,-0.89 -24.41,-5.22 -34.6,-13.17 -8.99,-7.05 -15.63,-15.94 -19.86,-26.6 -0.47,-1.2 -0.52,-0.99 0.58,-1.62 3.18,-1.88 6.69,-2.98 10.34,-3.66 4.34,-0.83 8.68,-1.14 13.07,-0.99 5.17,0.16 10.29,0.73 15.42,1.57 11.7,1.93 23.15,5.02 34.54,8.26 5.8,1.67 11.76,2.56 17.82,2.09 5.12,-0.37 9.93,-1.83 14.01,-5.07 4.07,-3.24 6.48,-7.58 7.89,-12.49 1.3,-4.6 2.5,-9.25 1.93,-14.01 -0.05,-1.41 -0.34,-2.77 -0.68,-4.23 -0.05,-0.52 -0.21,-0.78 -0.78,-0.73 -0.37,0.05 -0.42,0.31 -0.53,0.62 -0.41,1.47 -0.78,2.98 -1.25,4.45 -1.36,4.33 -3.08,8.46 -5.75,12.17 -3.08,4.34 -7.11,7.22 -12.44,8.21 -2.4,0.42 -4.8,0.47 -7.21,0.26 -6.69,-0.63 -12.96,-2.67 -19.28,-4.81 -6.9,-2.35 -13.8,-4.86 -20.8,-6.95 -5.44,-1.62 -10.98,-2.87 -16.62,-3.6 -4.02,-0.53 -8.1,-0.74 -12.12,-0.53 -7.32,0.42 -14.38,2.09 -21.01,5.28 -0.32,0.16 -0.63,0.42 -1.15,0.37 -0.11,-1.57 -0.32,-3.14 -0.37,-4.71 -0.52,-16.25 4.23,-30.73 14.74,-43.22 9.46,-11.23 21.48,-18.23 35.85,-21.16 5.49,-1.1 11.03,-1.41 16.57,-0.99 14.16,1.09 26.6,6.37 37.2,15.83 3.98,3.5 7.43,7.47 10.3,11.92 0.07,0.12 0.16,0.25 -0.1,0.15l0 0z" inkscape:connector-curvature="0" sodipodi:nodetypes="cccccccccccccccccccccccccccccccccccccccccscccccccccccccccccccccc"/>
  <path id="path14" class="fil1" d="M81.39 162.61c-1.04,1.78 -1.72,3.61 -1.57,5.7 0.06,0.52 0,1.04 -0.05,1.51 -0.1,0.95 0,1.94 -0.42,2.83 -0.1,0.47 -0.41,0.78 -0.62,1.2 -0.32,0.57 -1,1.3 -0.32,1.78 0.79,0.52 1.05,-0.47 1.41,-1 0.37,-0.47 0.63,-0.99 1.05,-1.41 0.21,-0.21 0.47,-0.47 0.78,-0.57 0.37,-0.16 0.79,-0.26 1.05,0.05 0.31,0.36 0,0.73 -0.26,0.99 -0.89,0.94 -1.88,1.78 -2.98,2.46 -0.42,0.26 -0.89,0.83 -1.41,0.52 -0.47,-0.31 -0.11,-0.94 -0.16,-1.41l0 -0.63c0.05,-0.99 -0.63,-1.62 -1.41,-1.98 -0.78,-0.37 -1.41,0.15 -1.93,0.73 -0.42,0.52 -0.89,0.99 -1.15,1.62 -0.42,0.73 -0.79,1.46 -1.21,2.19 -0.47,0.89 -0.47,0.89 -1.41,0.68 -0.73,-0.15 -1.46,-0.31 -2.19,-0.05 -2.46,0.84 -4.24,2.51 -5.75,4.49 -0.16,0.16 -0.26,0.42 -0.16,0.58 0.21,0.26 0.47,0.1 0.68,0 0.11,-0.1 0.26,-0.16 0.42,-0.26 1.36,-0.84 2.72,-1.1 4.29,-0.52 1.62,0.57 3.13,0.26 4.59,-0.53 0.53,-0.26 1,-0.62 1.47,-0.94 0.52,-0.36 1.1,-0.62 1.72,-0.68 1.05,-0.1 1.99,-0.47 2.88,-1.09 0.57,-0.42 1.15,-0.89 1.83,-1.1 2.14,-0.68 4.02,-1.83 5.53,-3.5 0.53,-0.58 1.16,-0.68 1.94,-0.47 1.1,0.31 1.62,0.1 2.25,-0.84 0.47,-0.63 0.83,-1.25 1.25,-1.88 1.05,-1.46 1.67,-1.67 3.4,-1.26 0.62,0.16 1.15,0.16 1.67,-0.2 1.57,-1.05 1.99,-3.35 0.84,-4.86 -0.32,-0.42 -0.63,-0.79 -1,-1.15 -0.52,-0.53 -0.68,-0.53 -1.04,0.1 -0.84,1.36 -1.94,2.46 -2.88,3.66 -0.62,0.84 -1.2,1.67 -1.77,2.56 -0.79,1.2 -0.94,1.36 -2.36,0.99 -0.57,-0.15 -0.99,-0.05 -1.35,0.37l-0.53 0.52c-0.26,0.21 -0.36,0.52 -0.57,0.73 -0.05,0.11 -0.16,0.16 -0.21,0.26 -0.1,0.06 -0.21,0.16 -0.26,0.27 -0.11,0.05 -0.21,0.15 -0.26,0.26 -0.26,0.05 -0.42,0.26 -0.73,0.2 0.31,-0.47 0.2,-1.04 0.41,-1.51 0,-0.1 0,-0.16 0.06,-0.21 0.15,-0.52 0.2,-1.04 -0.06,-1.51 -1.04,-0.95 -1.77,-1 -2.82,-0.11 -0.36,0.31 -0.68,0.68 -1.25,1.2 0.57,-2.82 0.57,-5.43 0.88,-8.05 0.06,-0.26 0.21,-0.52 -0.31,-0.73zm-6.23 12.84c0.34,0.02 0.66,0.18 0.95,0.44 0.26,0.26 0.47,0.52 0.26,0.89 -0.31,0.57 -0.94,0.68 -1.35,0.78 -0.74,0 -1.57,-0.42 -1.52,-0.84 0.05,-0.57 0.47,-0.94 0.99,-1.15 0.24,-0.09 0.46,-0.13 0.67,-0.12z"/>
  <path id="path16" class="fil1" d="M35.56 158.59c-0.37,2.14 -0.26,4.34 -0.31,6.48 -0.06,2.46 -0.58,4.81 -1.83,6.95 -0.47,0.84 -1.05,1.62 -1.88,2.09 -0.32,0.16 -0.74,0.42 -1.05,0.37 -1.04,-0.27 -1.57,0.41 -2.09,1.04 -0.84,0.99 -2.04,1.31 -3.19,1.67 -0.78,0.27 -1.51,0.74 -2.3,0.89 -0.42,0.11 -0.42,0.42 -0.47,0.79 -0.21,1.41 -0.42,2.82 -0.73,4.18 -0.84,3.86 -2.46,7.37 -5.38,10.14 -1.78,1.67 -3.87,2.56 -6.38,2.45 -1.77,-0.05 -3.13,-0.83 -4.07,-2.3 -0.58,-0.83 -0.89,-1.77 -1,-2.82 -0.36,-4.02 0.58,-7.79 2.41,-11.34 0.1,-0.21 0.21,-0.47 0.52,-0.52 0.26,0.62 -0.1,1.2 -0.26,1.77 -0.63,1.68 -1.1,3.4 -1.26,5.23 -0.05,0.78 0,1.52 0.21,2.25 0.37,1.41 1.36,2.3 2.77,2.61 3.45,0.78 7.74,-0.16 9.88,-4.08 1.1,-2.09 1.78,-4.23 1.78,-6.58 0,-0.99 0,-1.99 0.05,-3.03 0.05,-1.2 0.31,-1.41 1.46,-1.15 0.47,0.1 0.89,0.1 1.36,-0.11 0.68,-0.31 1.2,-1.09 2.09,-0.57 0.05,0.05 0.32,-0.11 0.42,-0.26 0.31,-0.37 0.52,-0.63 1.1,-0.63 0.89,0 1.04,-0.31 0.83,-1.2 -0.36,-1.47 0,-2.72 0.79,-3.92 0.1,-0.16 0.21,-0.37 0.47,-0.37 0.31,0.11 0.26,0.37 0.31,0.63 0.31,0.94 0.84,1.31 1.73,1.31 0.88,0 1.46,-0.47 1.67,-1.41 0.1,-0.48 0.1,-0.89 0.1,-1.36 0,-1.36 0.05,-2.67 0,-4.03 -0.05,-1.3 0.21,-2.56 0.84,-3.76 0.42,-0.84 0.78,-1.67 1.2,-2.46 0.58,0.26 0.21,0.68 0.21,1.05l0 0z" inkscape:connector-curvature="0"/>
  <path id="path32" class="fil1" d="M96.13 193.13c-3.19,0 -5.38,-1.98 -5.65,-5.17 -0.2,-2.14 0.21,-4.18 0.89,-6.17 0.73,-2.14 1.88,-4.07 2.98,-6.06 0.11,-0.16 0.21,-0.37 0.52,-0.37 0.16,0.68 -0.15,1.26 -0.36,1.78 -0.63,1.41 -1.31,2.82 -1.83,4.29 -0.26,0.73 -0.42,1.51 -0.42,2.3 0,2.61 1.52,4.33 4.13,4.59 5.02,0.53 8.52,-2.14 10.4,-6.32 0.21,-0.42 0.26,-0.89 0.31,-1.36 0.06,-1.15 0.21,-2.24 0.16,-3.39 -0.1,-2.41 0.94,-4.34 2.09,-6.28 0.31,0 0.31,0.21 0.31,0.37 -0.36,3.08 -0.41,6.17 -1.15,9.2 -0.76,3.11 -1.47,4.52 -2.91,7.19 -0.21,0.38 -1.46,2.13 -1.7,2.39 -0.75,0.83 -1.74,1.67 -2.77,2.1 -1.45,0.77 -3.37,0.91 -5,0.91z" inkscape:connector-curvature="0"/>
  <path id="path42" class="fil1" d="M74.23 144.9c-0.15,1.04 -0.63,1.93 -1.25,2.71 -2.09,2.62 -4.76,4.39 -8,5.34 -1.77,0.52 -3.6,0.78 -5.43,0.73 -2.35,-0.06 -4.45,0.52 -6.07,2.35 -0.15,0.16 -0.31,0.31 -0.47,0.42 -0.36,0.21 -0.67,0 -0.62,-0.42 0.05,-0.42 0.21,-0.84 0.36,-1.2 1.1,-2.36 2.88,-4.08 5.18,-5.23 0.94,-0.47 1.98,-0.57 3.03,-0.63 1.98,-0.1 3.92,-0.26 5.85,-0.73 2.09,-0.52 3.97,-1.46 5.59,-2.98 0.32,-0.31 0.68,-0.57 1.05,-0.89 0.15,-0.1 0.36,-0.26 0.57,-0.15 0.26,0.21 0.26,0.47 0.21,0.68l0 0z" inkscape:connector-curvature="0"/>
  <path id="path56" class="fil1" d="M133.34 164.34c-0.26,2.3 -0.52,4.54 -0.89,6.79 -0.21,1.57 -0.26,3.14 -0.21,4.76 0.11,2.82 2.72,3.19 4.34,2.24 0.26,-0.15 0.57,-0.36 0.78,-0.62 0.58,-0.58 1.2,-0.94 2.09,-0.84 0.73,0.11 1.15,-0.36 1.47,-0.94 0.15,-0.26 0.1,-0.73 0.41,-0.68 1.1,0.05 1.21,-0.78 1.52,-1.51 0.05,-0.16 0.1,-0.32 0.31,-0.32 0.21,1.62 -0.62,3.56 -1.93,4.23 -0.47,0.27 -0.84,0.53 -1.1,0.95 -0.36,0.52 -0.89,0.88 -1.57,0.78 -0.73,-0.11 -1.3,0.21 -1.77,0.78 -0.37,0.42 -0.68,0.84 -1.05,1.26 -0.31,0.42 -0.73,0.83 -1.2,1.09 -1.41,0.84 -2.98,0.42 -3.71,-1.04 -0.52,-1.1 -0.78,-2.3 -0.63,-3.55 0.37,-3.51 0.79,-6.95 1.26,-10.4 0.21,-1.31 0.83,-2.51 1.46,-3.71 0.78,0.05 0.47,0.41 0.42,0.73l0 0z" inkscape:connector-curvature="0"/>
  <path id="path58" class="fil1" d="M36.19 154.77c0.41,-1.51 1.3,-2.66 2.45,-3.71 2.72,-2.45 5.65,-4.65 8.52,-7 3.87,-3.13 7.37,-6.64 10.92,-10.14 0.21,-0.05 0.37,0 0.26,0.26 -1.14,2.88 -3.13,5.13 -5.33,7.16 -3.5,3.35 -7.26,6.38 -11.13,9.31 -1.77,1.35 -3.55,2.71 -5.33,4.12 -0.15,0.16 -0.26,0.11 -0.36,0l0 0z" inkscape:connector-curvature="0"/>
  <path id="path62" class="fil1" d="M115.52 164.34c-0.37,2.14 -0.79,4.28 -1.15,6.37 -0.32,1.62 -0.52,3.3 -0.37,4.97 0.05,0.89 0.32,1.62 1.05,2.14 0.52,0.37 0.78,0.31 1.04,-0.26 0.21,-0.47 0.37,-0.94 0.53,-1.41 0.15,-0.37 0.41,-0.37 0.67,-0.16 0.47,0.37 0.68,0.84 0.68,1.41 0,1.57 -0.36,2.98 -1.3,4.24 -1.1,1.41 -2.72,1.35 -3.77,-0.06 -0.36,-0.52 -0.62,-1.04 -0.73,-1.72 -0.31,-1.73 -0.26,-3.45 0.11,-5.18 0.31,-1.72 0.68,-3.44 0.89,-5.17 0.26,-2.14 1.09,-4.08 2.14,-5.96 0.57,0.16 0.26,0.53 0.21,0.79l0 0z" inkscape:connector-curvature="0"/>
  <path id="path68" class="fil1" d="M40.47 172.8c0.42,0.37 0.73,0.63 1,0.89 1.67,1.31 2.03,3.09 1.72,5.07 -0.26,1.67 -0.99,3.19 -1.88,4.6 -0.16,0.21 -0.32,0.42 -0.47,0.57 -1.31,1.1 -2.88,1.52 -4.55,2.15 -0.05,-0.73 0.42,-1 0.73,-1.26 0.94,-0.83 1.88,-1.62 2.77,-2.51 1.26,-1.25 1.31,-1.77 0.21,-3.24 -0.36,-0.47 -0.78,-0.88 -1.2,-1.25 -0.26,-0.21 -0.42,-0.42 -0.26,-0.78 0.57,-1.41 1.1,-2.83 1.93,-4.24z" inkscape:connector-curvature="0"/>
  <path id="path74" class="fil1" d="M48.52 166.01c0,1.67 0,3.29 0,4.96 0,1.21 -0.1,2.41 -0.21,3.61 -0.16,2.61 -1.04,4.97 -2.25,7.21 -0.1,0.21 -0.2,0.47 -0.52,0.47 -0.26,-0.15 -0.21,-0.42 -0.16,-0.62 0.79,-3.19 0.95,-6.43 1.15,-9.67 0.06,-2.09 1.05,-4.03 1.99,-5.96l0 0z" inkscape:connector-curvature="0"/>
  <path id="path76" class="fil1" d="M59.55 165.96c0.36,0.78 0.1,1.46 0.1,2.19 0,1.73 -0.1,3.5 -0.1,5.23 -0.06,2.87 -0.84,5.49 -2.09,8.05 -0.16,0.36 -0.32,0.78 -0.73,0.89 -0.32,-0.37 -0.16,-0.68 -0.11,-1 0.68,-3.03 0.89,-6.06 0.99,-9.14 0.06,-2.2 1.05,-4.18 1.94,-6.22l0 0z" inkscape:connector-curvature="0"/>
  <path id="path78" class="fil1" d="M54.69 173.8c0.31,0.41 0.21,0.78 0.15,1.09 -0.36,2.41 -0.83,4.76 -1.72,7.06 -1.05,2.82 -3.45,3.66 -6.06,4.18 -0.21,0.05 -0.42,0.1 -0.53,-0.16 -0.1,-0.21 0,-0.41 0.16,-0.57 0.42,-0.37 0.79,-0.73 1.2,-1.1 1.1,-0.78 2.09,-1.67 3.03,-2.66 0.84,-0.89 1.47,-1.89 1.89,-3.09 0.41,-1.25 0.83,-2.56 1.25,-3.81 0.16,-0.32 0.21,-0.68 0.63,-0.94z" inkscape:connector-curvature="0"/>
  <path id="path80" class="fil1" d="M127.9 171.29c-0.42,2.51 -0.83,5.22 -2.04,7.73 -0.62,1.36 -1.62,2.3 -3.03,2.82 -0.88,0.37 -1.77,0.68 -2.77,0.79 -0.21,0 -0.41,0.05 -0.52,-0.16 -0.1,-0.21 0.05,-0.42 0.16,-0.57 0.36,-0.37 0.78,-0.73 1.2,-1.1 0.52,-0.42 1.1,-0.78 1.57,-1.25 1.67,-1.42 2.98,-3.04 3.55,-5.18 0.32,-1.15 0.73,-2.3 1.15,-3.45 0.11,-0.26 0.05,-0.68 0.47,-0.57 0.37,0.15 0.32,0.47 0.26,0.94l0 0z" inkscape:connector-curvature="0"/>
  <path id="path82" class="fil1" d="M102.82 177.82c0,1.67 -0.84,2.51 -1.73,3.4 -0.21,0.21 -0.47,0.15 -0.68,0 -0.26,-0.21 -0.52,-0.42 -0.78,-0.58 -1.88,-1.36 -1.83,-0.73 -0.78,-3.08 0.26,-0.63 0.62,-1.15 0.94,-1.73 0.26,-0.47 0.57,-0.57 0.99,-0.26 0.94,0.58 2.04,1.15 2.04,2.25l0 0z" inkscape:connector-curvature="0"/>
  <path id="path88" class="fil1" d="M125.76 158.48c0.37,0.27 0.63,0.42 0.89,0.63 1.83,1.46 1.72,3.87 -0.21,5.28 -0.26,0.21 -0.52,0.26 -0.78,0.05 -0.06,-0.05 -0.11,-0.1 -0.21,-0.15 -2.04,-1.42 -2.04,-1.42 -0.94,-3.66 0.31,-0.68 0.73,-1.36 1.25,-2.15z" inkscape:connector-curvature="0"/>
  <path id="path90" class="fil1" d="M83.38 154.51c0.42,0.32 0.73,0.53 0.99,0.79 1.72,1.46 1.52,3.92 -0.37,5.17 -0.31,0.21 -0.62,0.26 -0.88,0 -0.06,-0.05 -0.06,-0.05 -0.11,-0.05 -1.98,-1.41 -2.04,-1.52 -0.89,-3.71 0.37,-0.73 0.79,-1.36 1.26,-2.2z" inkscape:connector-curvature="0"/>
  <path id="path92" class="fil1" d="M76.06 159.22c-0.26,1.09 -0.73,2.14 -1.67,2.92 -0.26,0.21 -0.52,0.26 -0.79,0.06 -0.05,0 -0.05,-0.06 -0.1,-0.06 -1.93,-1.2 -2.09,-1.62 -1.04,-3.66 0.2,-0.47 0.47,-0.88 0.73,-1.3 0.62,-1.05 0.62,-1.05 1.62,-0.21 0.62,0.57 1.25,1.2 1.25,2.25l0 0z" inkscape:connector-curvature="0"/>
  <path id="path94" class="fil1" d="M32.27 189.63c-0.16,1.05 -0.68,2.04 -1.57,2.88 -0.31,0.26 -0.58,0.31 -0.89,0.05 -0.05,0 -0.05,-0.05 -0.1,-0.05 -2.04,-1.36 -2.09,-1.42 -1,-3.66 0.26,-0.53 0.53,-1.05 0.84,-1.52 0.42,-0.68 0.42,-0.68 1.1,-0.15 0.78,0.52 1.62,1.09 1.62,2.45l0 0z" inkscape:connector-curvature="0"/>
  <path id="path96" class="fil1" d="M26.68 160.94c1.51,1.62 1.41,3.61 -0.32,5.07 -0.36,0.31 -0.68,0.42 -1.1,0.05 -0.41,-0.36 -0.83,-0.62 -1.3,-0.99 -0.84,-0.31 -0.89,-0.89 -0.58,-1.57 0.37,-0.78 0.73,-1.57 1.15,-2.3 0.73,-1.25 1.1,-1.3 2.15,-0.26z" inkscape:connector-curvature="0"/>
  <path id="path98" class="fil1" d="M25.37 186.91c0.78,0.37 1.36,0.89 1.83,1.52 0.42,0.52 0.57,1.1 0.42,1.78 -0.27,0.88 -0.68,1.72 -1.31,2.4 -0.42,0.42 -0.78,0.47 -1.31,0.1 -1.93,-1.41 -1.98,-1.41 -0.94,-3.55 0.37,-0.83 0.79,-1.57 1.31,-2.25l0 0z" inkscape:connector-curvature="0"/>
  <path id="path100" class="fil1" d="M21.19 159.06c-0.05,-1.05 0.68,-1.83 1.04,-2.77 0.11,-0.21 0.26,-0.42 0.37,-0.63 0.57,-0.99 0.57,-0.99 1.62,-0.36 1.72,1.46 1.83,1.83 0.94,3.76l0 0c-0.05,0.05 -0.05,0.16 -0.1,0.21 -0.58,1.78 -1.52,2.04 -2.93,0.94 -0.37,-0.37 -0.68,-0.73 -0.94,-1.15z" inkscape:connector-curvature="0"/>
  <path id="path102" class="fil1" d="M75.17 166.85c-0.1,0.99 -0.68,1.98 -1.57,2.82 -0.31,0.31 -0.62,0.26 -0.99,0.05 -1.98,-1.31 -2.04,-1.62 -0.99,-3.66 0.31,-0.62 0.68,-1.25 1.04,-1.83 0.11,-0.15 0.21,-0.31 0.47,-0.21 0.84,0.21 2.04,1.73 2.04,2.83l0 0z" inkscape:connector-curvature="0"/>
  <path id="path104" class="fil1" d="M52.39 161.31c0.73,0.36 1.3,0.89 1.83,1.46 0.36,0.42 0.47,0.89 0.41,1.41 -0.1,1.15 -0.67,2.14 -1.51,2.93 -0.26,0.26 -0.58,0.31 -0.89,0.05 -0.05,0 -0.05,-0.05 -0.1,-0.05 -1.99,-1.31 -2.09,-1.52 -1.05,-3.66 0.37,-0.73 0.73,-1.46 1.31,-2.14z" inkscape:connector-curvature="0"/>
  <path id="path106" class="fil1" d="M19.67 165.54c-0.89,-0.99 -0.94,-0.99 -0.36,-2.2 0.42,-0.94 0.89,-1.82 1.36,-2.77 0.26,-0.26 0.47,-0.26 0.73,0l-0.06 -0.05c0.16,0 0.21,0.11 0.32,0.21l0 0c0.1,0.05 0.16,0.16 0.26,0.21l0 0c0.89,0.52 1.67,1.1 1.46,2.3 -0.05,0.21 -0.21,0.42 -0.31,0.63 -0.05,0.1 -0.16,0.1 -0.26,0.15 -0.11,0 -0.32,-0.15 -0.21,0.16 0.1,0.21 0.21,0.42 0.21,0.68 -0.05,0.21 -0.11,0.42 -0.21,0.57 -0.94,1.62 -1.78,1.62 -2.93,0.11l0 0z" inkscape:connector-curvature="0"/>
  <path id="path118" class="fil1" d="M25.16 159.01c0.05,-0.21 0.1,-0.42 0.16,-0.58 0.36,-0.99 0.21,-1.88 -0.58,-2.61 -0.15,-0.16 -0.31,-0.37 -0.47,-0.58 1.31,0.53 1.73,1.15 1.57,2.36 0,0.1 -0.05,0.15 -0.05,0.26 0,0.62 -0.21,0.94 -0.63,1.15l0 0z" inkscape:connector-curvature="0"/>
  <path id="path120" class="fil1" d="M85.21 173.38c-0.26,0.47 -0.68,0.73 -1.31,0.89 0.31,-0.73 0.68,-1.47 0.99,-2.2 0.11,0.42 -0.15,0.94 0.32,1.31z" inkscape:connector-curvature="0"/>
  <path id="path132" class="fil1" d="M133.34 164.34c-0.11,-0.26 0.05,-0.63 -0.26,-0.79 0,-0.31 0.1,-0.57 0.31,-0.78 0.21,0.78 0.21,0.78 -0.05,1.57z" inkscape:connector-curvature="0"/>
  <path id="path136" class="fil1" d="M115.52 164.34c-0.11,-0.26 0.05,-0.58 -0.21,-0.79 0.1,-0.21 0.21,-0.41 0.36,-0.83 0.16,0.78 0.16,1.2 -0.15,1.62z" inkscape:connector-curvature="0"/>
  <path id="path138" class="fil1" d="M35.56 158.59c-0.16,-0.31 0.1,-0.73 -0.26,-0.99 0.16,-0.27 0.36,-0.42 0.42,0 0.1,0.31 0.05,0.68 -0.16,0.99z" inkscape:connector-curvature="0"/>
  <path id="path140" class="fil1" d="M84.95 171.86c0,-0.52 -0.06,-0.99 -0.06,-1.51 0.42,0.47 0.37,0.99 0.06,1.51z" inkscape:connector-curvature="0"/>
  <path id="path142" class="fil1" d="M81.71 163.34c-0.06,-0.15 -0.06,-0.41 -0.27,-0.52 0.06,-0.26 0.11,-0.47 0.42,-0.57 0.11,0.42 0.11,0.73 -0.15,1.09z" inkscape:connector-curvature="0"/>
  <path id="path152" class="fil1" d="M86.46 171.86c-0.1,0.32 -0.26,0.58 -0.57,0.73 0.05,-0.36 0.2,-0.62 0.57,-0.73z" inkscape:connector-curvature="0"/>
  <path id="path156" class="fil1" d="M58.35 134.24c-0.11,-0.11 -0.16,-0.16 -0.27,-0.27 0.06,-0.2 0.21,-0.41 0.37,-0.31 0.26,0.16 0.1,0.42 -0.1,0.58l0 0z" inkscape:connector-curvature="0"/>
  <path id="path158" class="fil1" d="M21.4 160.63c-0.21,-0.06 -0.47,-0.11 -0.73,0 0.31,-0.42 0.52,-0.42 0.73,0z" inkscape:connector-curvature="0"/>
  <path id="path164" class="fil1" d="M36.19 154.77c0.1,0 0.21,0 0.36,0.06 -0.05,0.15 -0.21,0.26 -0.36,0.21 -0.16,-0.06 -0.11,-0.16 0,-0.27z" inkscape:connector-curvature="0"/>
  <path id="path170" class="fil1" d="M85.89 172.59c0,0.16 -0.11,0.21 -0.21,0.27 0.05,-0.11 0.15,-0.16 0.21,-0.27z" inkscape:connector-curvature="0"/>
  <path id="path172" class="fil1" d="M102.19 191.15c0.05,-0.16 0.16,-0.21 0.31,-0.26 -0.1,0.15 -0.2,0.2 -0.31,0.26z" inkscape:connector-curvature="0"/>
  <path id="path174" class="fil1" d="M85.42 173.12c-0.06,0.15 -0.11,0.21 -0.27,0.26 0.06,-0.16 0.16,-0.21 0.27,-0.26z" inkscape:connector-curvature="0"/>
  <path id="path176" class="fil1" d="M105.22 187.91c0,-0.16 0.11,-0.26 0.26,-0.32 -0.05,0.11 -0.1,0.21 -0.26,0.32z" inkscape:connector-curvature="0"/>
  <path id="path186" class="fil1" d="M21.97 161.05c-0.15,0 -0.26,-0.11 -0.26,-0.21 0.05,0.05 0.16,0.15 0.26,0.21z" inkscape:connector-curvature="0"/>
  <path id="path188" class="fil1" d="M21.71 160.84c-0.16,0 -0.26,-0.11 -0.31,-0.21 0.15,0 0.26,0.05 0.31,0.21z" inkscape:connector-curvature="0"/>
  <path id="path190" class="fil1" d="M85.68 172.86c0,0.15 -0.11,0.26 -0.26,0.26 0.05,-0.16 0.1,-0.21 0.26,-0.26z" inkscape:connector-curvature="0"/>
  <path id="path214" class="fil1" d="M23.02 164.13c0,0.26 -0.06,0.52 -0.32,0.73 -0.47,-0.31 -0.26,-0.89 -0.47,-1.36 0.47,0 0.47,0.52 0.79,0.63z" inkscape:connector-curvature="0"/>
  <path id="path216" class="fil1" d="M23.17 163.55c0.06,0.21 0,0.42 -0.2,0.53 0,-0.16 0,-0.37 0.2,-0.53z" inkscape:connector-curvature="0"/>
 </g>
</svg>
