<?xml version="1.0" encoding="UTF-8" standalone="no"?>
<!-- Generator: Adobe Illustrator 19.0.0, SVG Export Plug-In . SVG Version: 6.00 Build 0)  -->

<svg
   xmlns:dc="http://purl.org/dc/elements/1.1/"
   xmlns:cc="http://creativecommons.org/ns#"
   xmlns:rdf="http://www.w3.org/1999/02/22-rdf-syntax-ns#"
   xmlns:svg="http://www.w3.org/2000/svg"
   xmlns="http://www.w3.org/2000/svg"
   xmlns:sodipodi="http://sodipodi.sourceforge.net/DTD/sodipodi-0.dtd"
   xmlns:inkscape="http://www.inkscape.org/namespaces/inkscape"
   version="1.1"
   id="Layer_1"
   x="0px"
   y="0px"
   viewBox="0 0 264.81 364.75601"
   xml:space="preserve"
   sodipodi:docname="KFZO-logo-b.svg"
   width="264.81"
   height="364.75601"
   inkscape:version="0.92.1 r15371"><metadata
     id="metadata227"><rdf:RDF><cc:Work
         rdf:about=""><dc:format>image/svg+xml</dc:format><dc:type
           rdf:resource="http://purl.org/dc/dcmitype/StillImage" /><dc:title /></cc:Work></rdf:RDF></metadata><defs
     id="defs225" /><sodipodi:namedview
     pagecolor="#ffffff"
     bordercolor="#666666"
     borderopacity="1"
     objecttolerance="10"
     gridtolerance="10"
     guidetolerance="10"
     inkscape:pageopacity="0"
     inkscape:pageshadow="2"
     inkscape:window-width="1920"
     inkscape:window-height="1027"
     id="namedview223"
     showgrid="false"
     inkscape:zoom="11.313708"
     inkscape:cx="225.62293"
     inkscape:cy="236.82671"
     inkscape:window-x="-8"
     inkscape:window-y="-8"
     inkscape:window-maximized="1"
     inkscape:current-layer="Layer_1" /><style
     type="text/css"
     id="style2">
	.st0{fill:#FFFFFF;}
	.st1{fill:#01AEC6;}
	.st2{fill:#01ADC5;}
	.st3{fill:#01AEC5;}
	.st4{fill:#02AEC6;}
	.st5{fill:#02AEC5;}
	.st6{fill:#04AFC7;}
	.st7{fill:#03AFC6;}
	.st8{fill:#03AEC5;}
	.st9{fill:#F9FCFB;}
	.st10{fill:#05AFC6;}
	.st11{fill:#03AEC6;}
	.st12{fill:#04AEC6;}
	.st13{fill:#F7FBFB;}
	.st14{fill:#0AB1C7;}
	.st15{fill:#EEF7F9;}
	.st16{fill:#0AB0C6;}
	.st17{fill:#F3F9F9;}
	.st18{fill:#ECF8F8;}
	.st19{fill:#F4FAFA;}
	.st20{fill:#41C3CF;}
	.st21{fill:#35BECE;}
	.st22{fill:#49C1D2;}
	.st23{fill:#58C8D4;}
	.st24{fill:#9FDFE4;}
	.st25{fill:#53C7D1;}
	.st26{fill:#5DC9D1;}
	.st27{fill:#87D7DB;}
	.st28{fill:#F0F9F9;}
	.st29{fill:#FEFFFE;}
	.st30{fill:#FDFEFE;}
	.st31{fill:#FEFEFE;}
</style><path
     class="st1"
     d="m 231.84216,53.74036 c -7.6,-3.5 -15.5,-5 -23.8,-4.2 -12.8,1.2 -24,5.9 -32.5,15.8 -4.8,5.6 -7.6,12.1 -8.1,19.6 -0.7,9.9 1.6,19.1 7.5,27.1 5,6.8 12.1,10.4 20.4,11.2 10.9,1.1 20.6,-1.9 28.3,-10 5.5,-5.8 7.4,-12.9 6.5,-20.8 -0.5,-4.5 -2.1,-8.7 -4.1,-12.7 -0.2,-0.5 -0.6,-0.9 -0.6,-1.7 4.9,0.3 9,2.2 12.6,5.3 4.4,3.9 7.3,8.8 9.7,14.1 2,4.6 2.79982,9.4 3.79982,14.3 0.42322,3 0.53483,6.17678 0.7,9.1 -0.4,11.3 -1.09982,22.4 -4.29982,33.3 -4.7,15.6 -12.2,29.7 -22.5,42.2 -0.5,0.6 -1,1 -1.3,1.7 -0.8,1.6 -2.3,2.6 -3.4,3.9 v 0 c 0,0.3 -0.2,0.5 -0.5,0.6 v 0 c -0.1,0.3 -0.3,0.4 -0.5,0.5 v 0 c -0.3,0.9 -1.1,1.5 -1.9,1.9 v 0 c -1.7,2.7 -4.3,4.4 -6.7,6.3 v 0 c -0.8,1 -1.8,1.8 -2.9,2.4 v 0 c -0.1,0.8 -0.9,0.7 -1.3,1.1 -4.2,2.9 -8.3,6 -12.7,8.6 -13.4,7.9 -27.7,13.1 -43,15.5 -8.6,1.3 -17.3,1.8 -26,1.2 -24.6,-1.7 -46.699996,-10 -66.199996,-25.2 -17.2,-13.5 -29.9,-30.5 -38,-50.9 -0.9,-2.3 -1,-1.9 1.1,-3.1 6.1,-3.6 12.8,-5.7 19.8,-7 8.3,-1.6 16.6,-2.2 25,-1.9 9.9,0.3 19.7,1.4 29.5,3 22.399996,3.7 44.299996,9.6 66.099996,15.8 11.1,3.2 22.5,4.9 34.1,4 9.8,-0.7 19,-3.5 26.8,-9.7 7.8,-6.2 12.4,-14.5 15.1,-23.9 2.5,-8.8 4.78372,-17.7 3.69984,-26.8 -0.1,-2.7 -0.6579,-5.31161 -1.29984,-8.1 -0.1,-1 -0.4,-1.5 -1.5,-1.4 -0.7,0.1 -0.8,0.6 -1,1.2 -0.8,2.8 -1.5,5.7 -2.4,8.5 -2.6,8.3 -5.9,16.2 -11,23.3 -5.9,8.3 -13.6,13.8 -23.8,15.7 -4.6,0.8 -9.2,0.9 -13.8,0.5 -12.8,-1.2 -24.8,-5.1 -36.9,-9.2 -13.2,-4.5 -26.4,-9.3 -39.8,-13.3 -10.4,-3.1 -20.999996,-5.5 -31.799996,-6.9 -7.7,-1 -15.5,-1.4 -23.2,-1 -14,0.8 -27.5,4 -40.2,10.1 -0.6,0.3 -1.2,0.8 -2.2,0.7 -0.2,-3 -0.6,-6 -0.7,-9 -1,-31.1 8.1,-58.8 28.2,-82.7 18.1,-21.5 41.1,-34.9 68.599996,-40.5 10.5,-2.1 21.1,-2.7 31.7,-1.9 27.1,2.1 50.9,12.2 71.2,30.3 7.6,6.7 14.2,14.3 19.7,22.8 0.13906,0.239062 0.31562,0.49375 -0.2,0.3 z"
     id="path6"
     inkscape:connector-curvature="0"
     style="fill:#000005;fill-opacity:1"
     sodipodi:nodetypes="cccccccccccccccccccccccccccccccccccccccccscccccccccccccccccccccc" /><path
     style="fill:#000005;fill-opacity:1"
     d="M 146.54883 301.54102 C 144.54883 304.94102 143.24883 308.43945 143.54883 312.43945 C 143.64883 313.43945 143.54922 314.43984 143.44922 315.33984 C 143.24922 317.13984 143.44844 319.04023 142.64844 320.74023 C 142.44844 321.64023 141.84922 322.24102 141.44922 323.04102 C 140.84922 324.14102 139.54961 325.53945 140.84961 326.43945 C 142.34961 327.43945 142.84883 325.54102 143.54883 324.54102 C 144.24883 323.64102 144.74883 322.63984 145.54883 321.83984 C 145.94883 321.43984 146.44883 320.94023 147.04883 320.74023 C 147.74883 320.44023 148.54883 320.23984 149.04883 320.83984 C 149.64883 321.53984 149.04883 322.24023 148.54883 322.74023 C 146.84883 324.54023 144.94961 326.13945 142.84961 327.43945 C 142.04961 327.93945 141.14844 329.03945 140.14844 328.43945 C 139.24844 327.83945 139.94961 326.64023 139.84961 325.74023 L 139.84961 324.54102 C 139.94961 322.64102 138.64844 321.44023 137.14844 320.74023 C 135.64844 320.04023 134.44922 321.04062 133.44922 322.14062 C 132.64922 323.14062 131.75 324.04023 131.25 325.24023 C 130.45 326.64023 129.74922 328.03945 128.94922 329.43945 C 128.04922 331.13945 128.05 331.14023 126.25 330.74023 C 124.85 330.44023 123.44883 330.14062 122.04883 330.64062 C 117.34883 332.24063 113.94883 335.44023 111.04883 339.24023 C 110.74883 339.54023 110.55 340.03984 110.75 340.33984 C 111.15 340.83984 111.64883 340.53984 112.04883 340.33984 C 112.24883 340.13984 112.54961 340.03984 112.84961 339.83984 C 115.44961 338.23984 118.04883 337.73984 121.04883 338.83984 C 124.14883 339.93984 127.04961 339.33984 129.84961 337.83984 C 130.84961 337.33984 131.74844 336.64102 132.64844 336.04102 C 133.64844 335.34102 134.74922 334.84023 135.94922 334.74023 C 137.94922 334.54023 139.74922 333.84062 141.44922 332.64062 C 142.54922 331.84062 143.64922 330.94102 144.94922 330.54102 C 149.04922 329.24102 152.64883 327.03984 155.54883 323.83984 C 156.54883 322.73984 157.75 322.53945 159.25 322.93945 C 161.35 323.53945 162.34883 323.13984 163.54883 321.33984 C 164.44883 320.13984 165.14922 318.94023 165.94922 317.74023 C 167.94922 314.94023 169.14922 314.53984 172.44922 315.33984 C 173.64922 315.63984 174.64844 315.63945 175.64844 314.93945 C 178.64844 312.93945 179.45 308.54062 177.25 305.64062 C 176.65 304.84062 176.04961 304.13945 175.34961 303.43945 C 174.34961 302.43945 174.04961 302.44063 173.34961 303.64062 C 171.74961 306.24063 169.64961 308.34062 167.84961 310.64062 C 166.64961 312.24063 165.54922 313.84102 164.44922 315.54102 C 162.94922 317.84102 162.64922 318.13945 159.94922 317.43945 C 158.84922 317.13945 158.04961 317.34062 157.34961 318.14062 L 156.34961 319.14062 C 155.84961 319.54062 155.65 320.14102 155.25 320.54102 C 155.15 320.74102 154.94961 320.84102 154.84961 321.04102 C 154.64961 321.14102 154.44961 321.34102 154.34961 321.54102 C 154.14961 321.64102 153.94961 321.84102 153.84961 322.04102 C 153.34961 322.14102 153.04922 322.53945 152.44922 322.43945 C 153.04922 321.53945 152.85 320.44102 153.25 319.54102 C 153.25 319.34102 153.24961 319.24063 153.34961 319.14062 C 153.64961 318.14062 153.75 317.14023 153.25 316.24023 C 151.25 314.44023 149.84961 314.34102 147.84961 316.04102 C 147.14961 316.64102 146.54922 317.33984 145.44922 318.33984 C 146.54922 312.93984 146.54844 307.93945 147.14844 302.93945 C 147.24844 302.43945 147.54883 301.94102 146.54883 301.54102 z M 134.61914 326.09961 C 135.28418 326.13574 135.88672 326.43945 136.44922 326.93945 C 136.94922 327.43945 137.34922 327.94063 136.94922 328.64062 C 136.34922 329.74063 135.14961 329.94063 134.34961 330.14062 C 132.94961 330.14062 131.34922 329.34102 131.44922 328.54102 C 131.54922 327.44102 132.34961 326.73984 133.34961 326.33984 C 133.79961 326.15234 134.22012 326.07793 134.61914 326.09961 z "
     id="path14" /><path
     class="st3"
     d="m 58.84906,293.84036 c -0.7,4.1 -0.5,8.3 -0.6,12.4 -0.1,4.7 -1.1,9.2 -3.5,13.3 -0.9,1.6 -2,3.1 -3.6,4 -0.6,0.3 -1.4,0.8 -2,0.7 -2,-0.5 -3,0.8 -4,2 -1.6,1.9 -3.9,2.5 -6.1,3.2 -1.5,0.5 -2.9,1.4 -4.4,1.7 -0.8,0.2 -0.8,0.8 -0.9,1.5 -0.4,2.7 -0.8,5.4 -1.4,8 -1.6,7.4 -4.7,14.1 -10.3,19.4 -3.4,3.2 -7.4,4.9 -12.2,4.7 -3.4,-0.1 -6,-1.6 -7.8,-4.4 -1.1,-1.6 -1.7,-3.4 -1.9,-5.4 -0.7,-7.7 1.1,-14.9 4.6,-21.7 0.2,-0.4 0.4,-0.9 1,-1 0.5,1.2 -0.2,2.3 -0.5,3.4 -1.2,3.2 -2.1,6.5 -2.4,10 -0.1,1.5 0,2.9 0.4,4.3 0.7,2.7 2.6,4.4 5.3,5 6.6,1.5 14.8,-0.3 18.9,-7.8 2.1,-4 3.4,-8.1 3.4,-12.6 0,-1.9 0,-3.8 0.1,-5.8 0.1,-2.3 0.6,-2.7 2.8,-2.2 0.9,0.2 1.7,0.2 2.6,-0.2 1.3,-0.6 2.3,-2.1 4,-1.1 0.1,0.1 0.6,-0.2 0.8,-0.5 0.6,-0.7 1,-1.2 2.1,-1.2 1.7,0 2,-0.6 1.6,-2.3 -0.7,-2.8 0,-5.2 1.5,-7.5 0.2,-0.3 0.4,-0.7 0.9,-0.7 0.6,0.2 0.5,0.7 0.6,1.2 0.6,1.8 1.6,2.5 3.3,2.5 1.7,0 2.8,-0.9 3.2,-2.7 0.2,-0.9 0.2,-1.7 0.2,-2.6 0,-2.6 0.1,-5.1 0,-7.7 -0.1,-2.5 0.4,-4.9 1.6,-7.2 0.8,-1.6 1.5,-3.2 2.3,-4.7 1.1,0.5 0.4,1.3 0.4,2 z"
     id="path16"
     inkscape:connector-curvature="0"
     style="fill:#000005;fill-opacity:1" /><path
     class="st2"
     d="m 177.54906,359.94036 c -1,0 -1.9,0 -2.9,0 -6.1,0 -10.3,-3.8 -10.8,-9.9 -0.4,-4.1 0.4,-8 1.7,-11.8 1.4,-4.1 3.6,-7.8 5.7,-11.6 0.2,-0.3 0.4,-0.7 1,-0.7 0.3,1.3 -0.3,2.4 -0.7,3.4 -1.2,2.7 -2.5,5.4 -3.5,8.2 -0.5,1.4 -0.8,2.9 -0.8,4.4 0,5 2.9,8.3 7.9,8.8 9.6,1 16.3,-4.1 19.9,-12.1 0.4,-0.8 0.5,-1.7 0.6,-2.6 0.1,-2.2 0.4,-4.3 0.3,-6.5 -0.2,-4.6 1.8,-8.3 4,-12 0.6,0 0.6,0.4 0.6,0.7 -0.7,5.9 -0.8,11.8 -2.2,17.6 -1.1,4.5 -2.7,8.7 -5.2,12.5 -0.2,0.3 -0.3,0.6 -0.4,0.9 0,0.3 -0.2,0.5 -0.5,0.6 v 0 c -0.3,0.5 -0.4,1.1 -1,1.4 l 0.1,0.1 -0.1,-0.1 c 0,0.6 -0.5,0.8 -0.9,1 v 0 c -0.6,1 -1.4,1.8 -2.4,2.4 v 0 c -0.3,0.3 -0.5,0.8 -1,0.9 v 0 c -0.1,0.2 -0.3,0.4 -0.6,0.5 v 0 c -1,1.3 -2.3,2 -3.9,2.5 v 0 c -0.8,0.9 -1.8,0.9 -2.9,1 v 0 c -0.5,0.5 -1.3,0 -2,0.4 z"
     id="path32"
     inkscape:connector-curvature="0"
     style="fill:#000005;fill-opacity:1" /><path
     class="st1"
     d="m 132.84906,267.64036 c -0.3,2 -1.2,3.7 -2.4,5.2 -4,5 -9.1,8.4 -15.3,10.2 -3.4,1 -6.9,1.5 -10.4,1.4 -4.5,-0.1 -8.5,1 -11.6,4.5 -0.3,0.3 -0.6,0.6 -0.9,0.8 -0.7,0.4 -1.3,0 -1.2,-0.8 0.1,-0.8 0.4,-1.6 0.7,-2.3 2.1,-4.5 5.5,-7.8 9.9,-10 1.8,-0.9 3.8,-1.1 5.8,-1.2 3.8,-0.2 7.5,-0.5 11.2,-1.4 4,-1 7.6,-2.8 10.7,-5.7 0.6,-0.6 1.3,-1.1 2,-1.7 0.3,-0.2 0.7,-0.5 1.1,-0.3 0.5,0.4 0.5,0.9 0.4,1.3 z"
     id="path42"
     inkscape:connector-curvature="0"
     style="fill:#000005;fill-opacity:1" /><path
     class="st3"
     d="m 245.94906,304.84036 c -0.5,4.4 -1,8.7 -1.7,13 -0.4,3 -0.5,6 -0.4,9.1 0.2,5.4 5.2,6.1 8.3,4.3 0.5,-0.3 1.1,-0.7 1.5,-1.2 1.1,-1.1 2.3,-1.8 4,-1.6 1.4,0.2 2.2,-0.7 2.8,-1.8 0.3,-0.5 0.2,-1.4 0.8,-1.3 2.1,0.1 2.3,-1.5 2.9,-2.9 0.1,-0.3 0.2,-0.6 0.6,-0.6 0.4,3.1 -1.2,6.8 -3.7,8.1 -0.9,0.5 -1.6,1 -2.1,1.8 -0.7,1 -1.7,1.7 -3,1.5 -1.4,-0.2 -2.5,0.4 -3.4,1.5 -0.7,0.8 -1.3,1.6 -2,2.4 -0.6,0.8 -1.4,1.6 -2.3,2.1 -2.7,1.6 -5.7,0.8 -7.1,-2 -1,-2.1 -1.5,-4.4 -1.2,-6.8 0.7,-6.7 1.5,-13.3 2.4,-19.9 0.4,-2.5 1.6,-4.8 2.8,-7.1 1.5,0.1 0.9,0.8 0.8,1.4 z"
     id="path56"
     inkscape:connector-curvature="0"
     style="fill:#000005;fill-opacity:1" /><path
     class="st5"
     d="m 60.04906,286.54036 c 0.8,-2.9 2.5,-5.1 4.7,-7.1 5.2,-4.7 10.8,-8.9 16.3,-13.4 7.4,-6 14.1,-12.7 20.9,-19.4 0.4,-0.1 0.7,0 0.5,0.5 -2.2,5.5 -6,9.8 -10.2,13.7 -6.7,6.4 -13.9,12.2 -21.3,17.8 -3.4,2.6 -6.8,5.2 -10.2,7.9 -0.3,0.3 -0.5,0.2 -0.7,0 z"
     id="path58"
     inkscape:connector-curvature="0"
     style="fill:#000005;fill-opacity:1" /><path
     class="st3"
     d="m 211.84906,304.84036 c -0.7,4.1 -1.5,8.2 -2.2,12.2 -0.6,3.1 -1,6.3 -0.7,9.5 0.1,1.7 0.6,3.1 2,4.1 1,0.7 1.5,0.6 2,-0.5 0.4,-0.9 0.7,-1.8 1,-2.7 0.3,-0.7 0.8,-0.7 1.3,-0.3 0.9,0.7 1.3,1.6 1.3,2.7 0,3 -0.7,5.7 -2.5,8.1 -2.1,2.7 -5.2,2.6 -7.2,-0.1 -0.7,-1 -1.2,-2 -1.4,-3.3 -0.6,-3.3 -0.5,-6.6 0.2,-9.9 0.6,-3.3 1.3,-6.6 1.7,-9.9 0.5,-4.1 2.1,-7.8 4.1,-11.4 1.1,0.3 0.5,1 0.4,1.5 z"
     id="path62"
     inkscape:connector-curvature="0"
     style="fill:#000005;fill-opacity:1" /><path
     class="st5"
     d="m 68.24906,321.04036 c 0.8,0.7 1.4,1.2 1.9,1.7 3.2,2.5 3.9,5.9 3.3,9.7 -0.5,3.2 -1.9,6.1 -3.6,8.8 -0.3,0.4 -0.6,0.8 -0.9,1.1 -2.5,2.1 -5.5,2.9 -8.7,4.1 -0.1,-1.4 0.8,-1.9 1.4,-2.4 1.8,-1.6 3.6,-3.1 5.3,-4.8 2.4,-2.4 2.5,-3.4 0.4,-6.2 -0.7,-0.9 -1.5,-1.7 -2.3,-2.4 -0.5,-0.4 -0.8,-0.8 -0.5,-1.5 1.1,-2.7 2.1,-5.4 3.7,-8.1 z"
     id="path68"
     inkscape:connector-curvature="0"
     style="fill:#000005;fill-opacity:1" /><path
     class="st8"
     d="m 83.64906,308.04036 c 0,3.2 0,6.3 0,9.5 0,2.3 -0.2,4.6 -0.4,6.9 -0.3,5 -2,9.5 -4.3,13.8 -0.2,0.4 -0.4,0.9 -1,0.9 -0.5,-0.3 -0.4,-0.8 -0.3,-1.2 1.5,-6.1 1.8,-12.3 2.2,-18.5 0.1,-4 2,-7.7 3.8,-11.4 z"
     id="path74"
     inkscape:connector-curvature="0"
     style="fill:#000005;fill-opacity:1" /><path
     class="st8"
     d="m 104.74906,307.94036 c 0.7,1.5 0.2,2.8 0.2,4.2 0,3.3 -0.2,6.7 -0.2,10 -0.1,5.5 -1.6,10.5 -4,15.4 -0.3,0.7 -0.6,1.5 -1.4,1.7 -0.6,-0.7 -0.3,-1.3 -0.2,-1.9 1.3,-5.8 1.7,-11.6 1.9,-17.5 0.1,-4.2 2,-8 3.7,-11.9 z"
     id="path76"
     inkscape:connector-curvature="0"
     style="fill:#000005;fill-opacity:1" /><path
     class="st8"
     d="m 95.44906,322.94036 c 0.6,0.8 0.4,1.5 0.3,2.1 -0.7,4.6 -1.6,9.1 -3.3,13.5 -2,5.4 -6.6,7 -11.6,8 -0.4,0.1 -0.8,0.2 -1,-0.3 -0.2,-0.4 0,-0.8 0.3,-1.1 0.8,-0.7 1.5,-1.4 2.3,-2.1 2.1,-1.5 4,-3.2 5.8,-5.1 1.6,-1.7 2.8,-3.6 3.6,-5.9 0.8,-2.4 1.6,-4.9 2.4,-7.3 0.3,-0.6 0.4,-1.3 1.2,-1.8 z"
     id="path78"
     inkscape:connector-curvature="0"
     style="fill:#000005;fill-opacity:1" /><path
     class="st8"
     d="m 235.54906,318.14036 c -0.8,4.8 -1.6,10 -3.9,14.8 -1.2,2.6 -3.1,4.4 -5.8,5.4 -1.7,0.7 -3.4,1.3 -5.3,1.5 -0.4,0 -0.8,0.1 -1,-0.3 -0.2,-0.4 0.1,-0.8 0.3,-1.1 0.7,-0.7 1.5,-1.4 2.3,-2.1 1,-0.8 2.1,-1.5 3,-2.4 3.2,-2.7 5.7,-5.8 6.8,-9.9 0.6,-2.2 1.4,-4.4 2.2,-6.6 0.2,-0.5 0.1,-1.3 0.9,-1.1 0.7,0.3 0.6,0.9 0.5,1.8 z"
     id="path80"
     inkscape:connector-curvature="0"
     style="fill:#000005;fill-opacity:1" /><path
     class="st5"
     d="m 187.54906,330.64036 c 0,3.2 -1.6,4.8 -3.3,6.5 -0.4,0.4 -0.9,0.3 -1.3,0 -0.5,-0.4 -1,-0.8 -1.5,-1.1 -3.6,-2.6 -3.5,-1.4 -1.5,-5.9 0.5,-1.2 1.2,-2.2 1.8,-3.3 0.5,-0.9 1.1,-1.1 1.9,-0.5 1.8,1.1 3.9,2.2 3.9,4.3 z"
     id="path82"
     inkscape:connector-curvature="0"
     style="fill:#000005;fill-opacity:1" /><path
     class="st5"
     d="m 231.44906,293.64036 c 0.7,0.5 1.2,0.8 1.7,1.2 3.5,2.8 3.3,7.4 -0.4,10.1 -0.5,0.4 -1,0.5 -1.5,0.1 -0.1,-0.1 -0.2,-0.2 -0.4,-0.3 -3.9,-2.7 -3.9,-2.7 -1.8,-7 0.6,-1.3 1.4,-2.6 2.4,-4.1 z"
     id="path88"
     inkscape:connector-curvature="0"
     style="fill:#000005;fill-opacity:1" /><path
     class="st5"
     d="m 150.34906,286.04036 c 0.8,0.6 1.4,1 1.9,1.5 3.3,2.8 2.9,7.5 -0.7,9.9 -0.6,0.4 -1.2,0.5 -1.7,0 -0.1,-0.1 -0.1,-0.1 -0.2,-0.1 -3.8,-2.7 -3.9,-2.9 -1.7,-7.1 0.7,-1.4 1.5,-2.6 2.4,-4.2 z"
     id="path90"
     inkscape:connector-curvature="0"
     style="fill:#000005;fill-opacity:1" /><path
     class="st11"
     d="m 136.34906,295.04036 c -0.5,2.1 -1.4,4.1 -3.2,5.6 -0.5,0.4 -1,0.5 -1.5,0.1 -0.1,0 -0.1,-0.1 -0.2,-0.1 -3.7,-2.3 -4,-3.1 -2,-7 0.4,-0.9 0.9,-1.7 1.4,-2.5 1.2,-2 1.2,-2 3.1,-0.4 1.2,1.1 2.4,2.3 2.4,4.3 z"
     id="path92"
     inkscape:connector-curvature="0"
     style="fill:#000005;fill-opacity:1" /><path
     class="st8"
     d="m 52.54906,353.24036 c -0.3,2 -1.3,3.9 -3,5.5 -0.6,0.5 -1.1,0.6 -1.7,0.1 -0.1,0 -0.1,-0.1 -0.2,-0.1 -3.9,-2.6 -4,-2.7 -1.9,-7 0.5,-1 1,-2 1.6,-2.9 0.8,-1.3 0.8,-1.3 2.1,-0.3 1.5,1 3.1,2.1 3.1,4.7 z"
     id="path94"
     inkscape:connector-curvature="0"
     style="fill:#000005;fill-opacity:1" /><path
     class="st12"
     d="m 41.84906,298.34036 c 2.9,3.1 2.7,6.9 -0.6,9.7 -0.7,0.6 -1.3,0.8 -2.1,0.1 -0.8,-0.7 -1.6,-1.2 -2.5,-1.9 -1.6,-0.6 -1.7,-1.7 -1.1,-3 0.7,-1.5 1.4,-3 2.2,-4.4 1.4,-2.4 2.1,-2.5 4.1,-0.5 z"
     id="path96"
     inkscape:connector-curvature="0"
     style="fill:#000005;fill-opacity:1" /><path
     class="st5"
     d="m 39.34906,348.04036 c 1.5,0.7 2.6,1.7 3.5,2.9 0.8,1 1.1,2.1 0.8,3.4 -0.5,1.7 -1.3,3.3 -2.5,4.6 -0.8,0.8 -1.5,0.9 -2.5,0.2 -3.7,-2.7 -3.8,-2.7 -1.8,-6.8 0.7,-1.6 1.5,-3 2.5,-4.3 z"
     id="path98"
     inkscape:connector-curvature="0"
     style="fill:#000005;fill-opacity:1" /><path
     class="st4"
     d="m 31.34906,294.74036 c -0.1,-2 1.3,-3.5 2,-5.3 0.2,-0.4 0.5,-0.8 0.7,-1.2 1.1,-1.9 1.1,-1.9 3.1,-0.7 3.3,2.8 3.5,3.5 1.8,7.2 v 0 c -0.1,0.1 -0.1,0.3 -0.2,0.4 -1.1,3.4 -2.9,3.9 -5.6,1.8 -0.7,-0.7 -1.3,-1.4 -1.8,-2.2 z"
     id="path100"
     inkscape:connector-curvature="0"
     style="fill:#000005;fill-opacity:1" /><path
     class="st5"
     d="m 134.64906,309.64036 c -0.2,1.9 -1.3,3.8 -3,5.4 -0.6,0.6 -1.2,0.5 -1.9,0.1 -3.8,-2.5 -3.9,-3.1 -1.9,-7 0.6,-1.2 1.3,-2.4 2,-3.5 0.2,-0.3 0.4,-0.6 0.9,-0.4 1.6,0.4 3.9,3.3 3.9,5.4 z"
     id="path102"
     inkscape:connector-curvature="0"
     style="fill:#000005;fill-opacity:1" /><path
     class="st5"
     d="m 91.04906,299.04036 c 1.4,0.7 2.5,1.7 3.5,2.8 0.7,0.8 0.9,1.7 0.8,2.7 -0.2,2.2 -1.3,4.1 -2.9,5.6 -0.5,0.5 -1.1,0.6 -1.7,0.1 -0.1,0 -0.1,-0.1 -0.2,-0.1 -3.8,-2.5 -4,-2.9 -2,-7 0.7,-1.4 1.4,-2.8 2.5,-4.1 z"
     id="path104"
     inkscape:connector-curvature="0"
     style="fill:#000005;fill-opacity:1" /><path
     class="st5"
     d="m 28.44906,307.14036 c -1.7,-1.9 -1.8,-1.9 -0.7,-4.2 0.8,-1.8 1.7,-3.5 2.6,-5.3 0.5,-0.5 0.9,-0.5 1.4,0 l -0.1,-0.1 c 0.3,0 0.4,0.2 0.6,0.4 v 0 c 0.2,0.1 0.3,0.3 0.5,0.4 v 0 c 1.7,1 3.2,2.1 2.8,4.4 -0.1,0.4 -0.4,0.8 -0.6,1.2 -0.1,0.2 -0.3,0.2 -0.5,0.3 -0.2,0 -0.6,-0.3 -0.4,0.3 0.2,0.4 0.4,0.8 0.4,1.3 -0.1,0.4 -0.2,0.8 -0.4,1.1 -1.8,3.1 -3.4,3.1 -5.6,0.2 z"
     id="path106"
     inkscape:connector-curvature="0"
     style="fill:#000005;fill-opacity:1" /><path
     class="st13"
     d="m 38.94906,294.64036 c 0.1,-0.4 0.2,-0.8 0.3,-1.1 0.7,-1.9 0.4,-3.6 -1.1,-5 -0.3,-0.3 -0.6,-0.7 -0.9,-1.1 2.5,1 3.3,2.2 3,4.5 0,0.2 -0.1,0.3 -0.1,0.5 0,1.2 -0.4,1.8 -1.2,2.2 z"
     id="path118"
     inkscape:connector-curvature="0"
     style="fill:#000005;fill-opacity:1" /><path
     class="st18"
     d="m 153.84906,322.14036 c -0.5,0.9 -1.3,1.4 -2.5,1.7 0.6,-1.4 1.3,-2.8 1.9,-4.2 0.2,0.8 -0.3,1.8 0.6,2.5 z"
     id="path120"
     inkscape:connector-curvature="0"
     style="fill:#000005;fill-opacity:1" /><path
     class="st19"
     d="m 182.44906,358.54036 c 1.3,-0.8 2.6,-1.6 3.9,-2.5 -0.5,2.1 -2.1,2.4 -3.9,2.5 z"
     id="path124"
     inkscape:connector-curvature="0"
     style="fill:#000005;fill-opacity:1" /><path
     class="st19"
     d="m 179.64906,359.54036 c 0.9,-0.6 1.9,-0.8 2.9,-1 -1.1,2 -1.1,2 -2.9,1 z"
     id="path128"
     inkscape:connector-curvature="0"
     style="fill:#000005;fill-opacity:1" /><path
     class="st19"
     d="m 187.84906,354.74036 c 0.7,-0.9 1.4,-1.8 2.4,-2.4 -0.1,1.4 -1,2.2 -2.4,2.4 z"
     id="path130"
     inkscape:connector-curvature="0"
     style="fill:#000005;fill-opacity:1" /><path
     class="st20"
     d="m 245.94906,304.84036 c -0.2,-0.5 0.1,-1.2 -0.5,-1.5 0,-0.6 0.2,-1.1 0.6,-1.5 0.4,1.5 0.4,1.5 -0.1,3 z"
     id="path132"
     inkscape:connector-curvature="0"
     style="fill:#000005;fill-opacity:1" /><path
     class="st21"
     d="m 211.84906,304.84036 c -0.2,-0.5 0.1,-1.1 -0.4,-1.5 0.2,-0.4 0.4,-0.8 0.7,-1.6 0.3,1.5 0.3,2.3 -0.3,3.1 z"
     id="path136"
     inkscape:connector-curvature="0"
     style="fill:#000005;fill-opacity:1" /><path
     class="st22"
     d="m 58.84906,293.84036 c -0.3,-0.6 0.2,-1.4 -0.5,-1.9 0.3,-0.5 0.7,-0.8 0.8,0 0.2,0.6 0.1,1.3 -0.3,1.9 z"
     id="path138"
     inkscape:connector-curvature="0"
     style="fill:#000005;fill-opacity:1" /><path
     class="st18"
     d="m 153.34906,319.24036 c 0,-1 -0.1,-1.9 -0.1,-2.9 0.8,0.9 0.7,1.9 0.1,2.9 z"
     id="path140"
     inkscape:connector-curvature="0"
     style="fill:#000005;fill-opacity:1" /><path
     class="st23"
     d="m 147.14906,302.94036 c -0.1,-0.3 -0.1,-0.8 -0.5,-1 0.1,-0.5 0.2,-0.9 0.8,-1.1 0.2,0.8 0.2,1.4 -0.3,2.1 z"
     id="path142"
     inkscape:connector-curvature="0"
     style="fill:#000005;fill-opacity:1" /><path
     class="st19"
     d="m 177.54906,359.94036 c 0.6,-0.5 1.4,-0.4 2.1,-0.4 0,0.4 -0.1,0.8 -0.7,0.6 -0.4,-0.1 -0.9,-0.1 -1.4,-0.2 z"
     id="path144"
     inkscape:connector-curvature="0"
     style="fill:#000005;fill-opacity:1" /><path
     class="st19"
     d="m 191.14906,351.24036 c 0.2,-0.6 0.5,-1.1 1,-1.4 0,0.8 0.1,1.5 -1,1.4 z"
     id="path146"
     inkscape:connector-curvature="0"
     style="fill:#000005;fill-opacity:1" /><path
     class="st19"
     d="m 186.84906,355.64036 c 0.2,-0.4 0.5,-0.7 1,-0.9 -0.1,0.4 0.4,0.9 0,1.2 -0.2,0.1 -0.7,-0.2 -1,-0.3 z"
     id="path148"
     inkscape:connector-curvature="0"
     style="fill:#000005;fill-opacity:1" /><path
     class="st19"
     d="m 190.24906,352.34036 c 0.2,-0.5 0.5,-0.8 0.9,-1 0.7,1.2 -0.2,1 -0.9,1 z"
     id="path150"
     inkscape:connector-curvature="0"
     style="fill:#000005;fill-opacity:1" /><path
     class="st18"
     d="m 156.24906,319.24036 c -0.2,0.6 -0.5,1.1 -1.1,1.4 0.1,-0.7 0.4,-1.2 1.1,-1.4 z"
     id="path152"
     inkscape:connector-curvature="0"
     style="fill:#000005;fill-opacity:1" /><path
     class="st24"
     d="m 102.44906,247.24036 c -0.2,-0.2 -0.3,-0.3 -0.5,-0.5 0.1,-0.4 0.4,-0.8 0.7,-0.6 0.5,0.3 0.2,0.8 -0.2,1.1 z"
     id="path156"
     inkscape:connector-curvature="0"
     style="fill:#000005;fill-opacity:1" /><path
     class="st13"
     d="m 31.74906,297.74036 c -0.4,-0.1 -0.9,-0.2 -1.4,0 0.6,-0.8 1,-0.8 1.4,0 z"
     id="path158"
     inkscape:connector-curvature="0"
     style="fill:#000005;fill-opacity:1" /><path
     class="st26"
     d="m 60.04906,286.54036 c 0.2,0 0.4,0 0.7,0.1 -0.1,0.3 -0.4,0.5 -0.7,0.4 -0.3,-0.1 -0.2,-0.3 0,-0.5 z"
     id="path164"
     inkscape:connector-curvature="0"
     style="fill:#000005;fill-opacity:1" /><path
     class="st18"
     d="m 155.14906,320.64036 c 0,0.3 -0.2,0.4 -0.4,0.5 0.1,-0.2 0.3,-0.3 0.4,-0.5 z"
     id="path170"
     inkscape:connector-curvature="0"
     style="fill:#000005;fill-opacity:1" /><path
     class="st19"
     d="m 186.34906,356.14036 c 0.1,-0.3 0.3,-0.4 0.6,-0.5 -0.2,0.3 -0.4,0.4 -0.6,0.5 z"
     id="path172"
     inkscape:connector-curvature="0"
     style="fill:#000005;fill-opacity:1" /><path
     class="st18"
     d="m 154.24906,321.64036 c -0.1,0.3 -0.2,0.4 -0.5,0.5 0.1,-0.3 0.3,-0.4 0.5,-0.5 z"
     id="path174"
     inkscape:connector-curvature="0"
     style="fill:#000005;fill-opacity:1" /><path
     class="st19"
     d="m 192.14906,349.94036 c 0,-0.3 0.2,-0.5 0.5,-0.6 -0.1,0.2 -0.2,0.4 -0.5,0.6 z"
     id="path176"
     inkscape:connector-curvature="0"
     style="fill:#000005;fill-opacity:1" /><path
     class="st13"
     d="m 32.84906,298.54036 c -0.3,0 -0.5,-0.2 -0.5,-0.4 0.1,0.1 0.3,0.3 0.5,0.4 z"
     id="path186"
     inkscape:connector-curvature="0"
     style="fill:#000005;fill-opacity:1" /><path
     class="st13"
     d="m 32.34906,298.14036 c -0.3,0 -0.5,-0.2 -0.6,-0.4 0.3,0 0.5,0.1 0.6,0.4 z"
     id="path188"
     inkscape:connector-curvature="0"
     style="fill:#000005;fill-opacity:1" /><path
     class="st18"
     d="m 154.74906,321.14036 c 0,0.3 -0.2,0.5 -0.5,0.5 0.1,-0.3 0.2,-0.4 0.5,-0.5 z"
     id="path190"
     inkscape:connector-curvature="0"
     style="fill:#000005;fill-opacity:1" /><path
     class="st12"
     d="m 34.84906,304.44036 c 0,0.5 -0.1,1 -0.6,1.4 -0.9,-0.6 -0.5,-1.7 -0.9,-2.6 0.9,0 0.9,1 1.5,1.2 z"
     id="path214"
     inkscape:connector-curvature="0"
     style="fill:#000005;fill-opacity:1" /><path
     class="st12"
     d="m 35.14906,303.34036 c 0.1,0.4 0,0.8 -0.4,1 0,-0.3 0,-0.7 0.4,-1 z"
     id="path216"
     inkscape:connector-curvature="0"
     style="fill:#000005;fill-opacity:1" /></svg>