<?xml version="1.0" encoding="UTF-8"?>
<!DOCTYPE svg PUBLIC "-//W3C//DTD SVG 1.1//EN" "http://www.w3.org/Graphics/SVG/1.1/DTD/svg11.dtd">
<!-- Creator: CorelDRAW 2020 (64-Bit) -->
<svg xmlns="http://www.w3.org/2000/svg" xml:space="preserve" width="25px" height="34px" version="1.1" style="shape-rendering:geometricPrecision; text-rendering:geometricPrecision; image-rendering:optimizeQuality; fill-rule:evenodd; clip-rule:evenodd"
viewBox="0 0 25 33.9"
 xmlns:xlink="http://www.w3.org/1999/xlink"
 xmlns:xodm="http://www.corel.com/coreldraw/odm/2003"
 xmlns:dc="http://purl.org/dc/elements/1.1/"
 xmlns:cc="http://creativecommons.org/ns#"
 xmlns:rdf="http://www.w3.org/1999/02/22-rdf-syntax-ns#"
 xmlns:svg="http://www.w3.org/2000/svg"
 xmlns:sodipodi="http://sodipodi.sourceforge.net/DTD/sodipodi-0.dtd"
 xmlns:inkscape="http://www.inkscape.org/namespaces/inkscape"
 sodipodi:docname="KFZO-logo-b.svg"
 inkscape:version="0.92.1 r15371">
 <defs>
  <style type="text/css">
   <![CDATA[
    .fil1 {fill:#00AFEF;fill-rule:nonzero}
    .fil0 {fill:#78B0F0;fill-rule:nonzero}
   ]]>
  </style>
 </defs>
 <g id="Layer_x0020_1">
  <metadata id="CorelCorpID_0Corel-Layer"/>
  <sodipodi:namedview pagecolor="#ffffff" bordercolor="#666666" borderopacity="1" objecttolerance="10" gridtolerance="10" guidetolerance="10" inkscape:pageopacity="0" inkscape:pageshadow="2" inkscape:window-width="1920" inkscape:window-height="1027" id="namedview223" showgrid="false" inkscape:zoom="11.313708" inkscape:cx="225.62293" inkscape:cy="236.82671" inkscape:window-x="-8" inkscape:window-y="-8" inkscape:window-maximized="1" inkscape:current-layer="Layer_1"/>
  <path id="path6" class="fil0" d="M21.28 5.59c-0.67,-0.31 -1.37,-0.44 -2.1,-0.37 -1.13,0.11 -2.12,0.52 -2.87,1.4 -0.43,0.49 -0.67,1.07 -0.72,1.73 -0.06,0.87 0.14,1.68 0.67,2.39 0.44,0.6 1.06,0.92 1.8,0.99 0.96,0.1 1.81,-0.17 2.49,-0.88 0.49,-0.52 0.66,-1.14 0.58,-1.84 -0.05,-0.4 -0.19,-0.77 -0.36,-1.12 -0.02,-0.05 -0.06,-0.08 -0.06,-0.15 0.44,0.03 0.8,0.19 1.12,0.47 0.38,0.34 0.64,0.77 0.85,1.24 0.18,0.41 0.25,0.83 0.34,1.26 0.03,0.27 0.04,0.55 0.06,0.81 -0.04,0.99 -0.1,1.97 -0.38,2.94 -0.42,1.37 -1.08,2.62 -1.99,3.72 -0.04,0.05 -0.09,0.09 -0.11,0.15 -0.07,0.14 -0.2,0.23 -0.3,0.35l0 0c0,0.02 -0.02,0.04 -0.05,0.05l0 0c0,0.03 -0.02,0.03 -0.04,0.04l0 0c-0.03,0.08 -0.1,0.14 -0.17,0.17l0 0c-0.15,0.24 -0.38,0.39 -0.59,0.56l0 0c-0.07,0.09 -0.16,0.16 -0.26,0.21l0 0c0,0.07 -0.07,0.06 -0.11,0.1 -0.37,0.25 -0.73,0.53 -1.12,0.76 -1.18,0.69 -2.45,1.15 -3.8,1.36 -0.76,0.12 -1.52,0.16 -2.29,0.11 -2.17,-0.15 -4.12,-0.88 -5.85,-2.23 -1.51,-1.19 -2.64,-2.69 -3.35,-4.49 -0.08,-0.2 -0.09,-0.17 0.1,-0.27 0.53,-0.32 1.13,-0.51 1.74,-0.62 0.74,-0.14 1.47,-0.19 2.21,-0.17 0.88,0.03 1.74,0.13 2.61,0.27 1.97,0.32 3.91,0.84 5.83,1.39 0.98,0.28 1.99,0.43 3.01,0.35 0.87,-0.06 1.68,-0.3 2.37,-0.85 0.69,-0.55 1.09,-1.28 1.33,-2.11 0.22,-0.78 0.42,-1.56 0.33,-2.37 -0.01,-0.24 -0.06,-0.47 -0.12,-0.71 -0.01,-0.09 -0.03,-0.13 -0.13,-0.13 -0.06,0.01 -0.07,0.06 -0.09,0.11 -0.07,0.25 -0.13,0.5 -0.21,0.75 -0.23,0.73 -0.52,1.43 -0.97,2.06 -0.52,0.73 -1.2,1.22 -2.1,1.38 -0.41,0.07 -0.82,0.08 -1.22,0.05 -1.13,-0.11 -2.19,-0.45 -3.26,-0.81 -1.16,-0.4 -2.33,-0.83 -3.51,-1.18 -0.92,-0.27 -1.86,-0.48 -2.81,-0.61 -0.68,-0.09 -1.37,-0.12 -2.05,-0.09 -1.23,0.07 -2.43,0.36 -3.55,0.9 -0.05,0.02 -0.1,0.07 -0.19,0.06 -0.02,-0.27 -0.05,-0.53 -0.06,-0.8 -0.09,-2.74 0.71,-5.19 2.49,-7.3 1.59,-1.9 3.63,-3.08 6.05,-3.57 0.93,-0.19 1.87,-0.24 2.8,-0.17 2.39,0.18 4.49,1.08 6.29,2.67 0.67,0.6 1.25,1.27 1.74,2.02 0.01,0.02 0.02,0.04 -0.02,0.02l0 0z" inkscape:connector-curvature="0" sodipodi:nodetypes="cccccccccccccccccccccccccccccccccccccccccscccccccccccccccccccccc"/>
  <path id="path14" class="fil1" d="M13.75 27.47c-0.18,0.3 -0.29,0.61 -0.27,0.96 0.01,0.09 0,0.18 -0.01,0.26 -0.01,0.16 0,0.32 -0.07,0.47 -0.01,0.08 -0.07,0.14 -0.1,0.21 -0.05,0.09 -0.17,0.22 -0.05,0.3 0.13,0.08 0.17,-0.08 0.23,-0.17 0.07,-0.08 0.11,-0.17 0.18,-0.24 0.04,-0.03 0.08,-0.08 0.13,-0.1 0.06,-0.02 0.14,-0.04 0.18,0.01 0.05,0.06 0,0.13 -0.04,0.17 -0.15,0.16 -0.32,0.3 -0.51,0.41 -0.07,0.05 -0.15,0.15 -0.24,0.09 -0.08,-0.05 -0.01,-0.16 -0.02,-0.24l0 -0.1c0.01,-0.17 -0.11,-0.27 -0.24,-0.34 -0.13,-0.06 -0.24,0.03 -0.33,0.13 -0.07,0.09 -0.15,0.16 -0.19,0.27 -0.07,0.12 -0.13,0.25 -0.21,0.37 -0.07,0.15 -0.07,0.15 -0.23,0.12 -0.13,-0.03 -0.25,-0.06 -0.37,-0.01 -0.42,0.14 -0.72,0.42 -0.98,0.76 -0.02,0.02 -0.04,0.07 -0.02,0.09 0.03,0.05 0.08,0.02 0.11,0 0.02,-0.01 0.05,-0.02 0.07,-0.04 0.23,-0.14 0.46,-0.19 0.73,-0.09 0.27,0.1 0.53,0.05 0.77,-0.09 0.09,-0.04 0.17,-0.1 0.25,-0.16 0.09,-0.06 0.19,-0.1 0.29,-0.11 0.18,-0.02 0.34,-0.08 0.49,-0.19 0.1,-0.07 0.19,-0.15 0.31,-0.18 0.36,-0.12 0.68,-0.31 0.93,-0.59 0.09,-0.1 0.2,-0.12 0.33,-0.08 0.19,0.05 0.27,0.02 0.38,-0.14 0.08,-0.11 0.14,-0.22 0.21,-0.32 0.18,-0.25 0.28,-0.28 0.57,-0.21 0.11,0.02 0.2,0.02 0.29,-0.04 0.26,-0.18 0.33,-0.56 0.14,-0.82 -0.05,-0.07 -0.11,-0.13 -0.17,-0.19 -0.09,-0.09 -0.11,-0.09 -0.18,0.01 -0.14,0.23 -0.32,0.42 -0.48,0.62 -0.11,0.14 -0.2,0.28 -0.3,0.43 -0.13,0.21 -0.16,0.23 -0.4,0.17 -0.1,-0.02 -0.17,-0.01 -0.23,0.06l-0.09 0.09c-0.04,0.04 -0.06,0.09 -0.09,0.13 -0.01,0.01 -0.03,0.02 -0.04,0.04 -0.02,0.01 -0.03,0.03 -0.04,0.04 -0.02,0.01 -0.04,0.03 -0.05,0.05 -0.04,0.01 -0.07,0.04 -0.12,0.03 0.05,-0.08 0.03,-0.17 0.07,-0.25 0,-0.02 0,-0.03 0.01,-0.04 0.03,-0.09 0.03,-0.17 -0.01,-0.25 -0.18,-0.16 -0.3,-0.17 -0.48,-0.02 -0.06,0.05 -0.11,0.11 -0.21,0.2 0.1,-0.48 0.1,-0.92 0.15,-1.36 0.01,-0.04 0.04,-0.09 -0.05,-0.12zm-1.05 2.17c0.05,0 0.11,0.03 0.16,0.07 0.04,0.04 0.08,0.09 0.04,0.15 -0.05,0.1 -0.16,0.12 -0.23,0.13 -0.12,0 -0.26,-0.07 -0.25,-0.14 0,-0.1 0.08,-0.16 0.16,-0.19 0.04,-0.02 0.08,-0.03 0.12,-0.02z"/>
  <path id="path16" class="fil1" d="M6.01 26.79c-0.07,0.36 -0.05,0.73 -0.06,1.09 -0.01,0.42 -0.09,0.82 -0.31,1.18 -0.07,0.14 -0.17,0.27 -0.31,0.35 -0.06,0.03 -0.13,0.07 -0.18,0.06 -0.18,-0.04 -0.26,0.07 -0.35,0.18 -0.14,0.17 -0.35,0.22 -0.54,0.28 -0.13,0.05 -0.26,0.12 -0.39,0.15 -0.07,0.02 -0.07,0.07 -0.08,0.13 -0.03,0.24 -0.07,0.48 -0.12,0.71 -0.14,0.65 -0.42,1.24 -0.91,1.71 -0.3,0.29 -0.66,0.44 -1.08,0.42 -0.3,-0.01 -0.53,-0.14 -0.69,-0.39 -0.09,-0.14 -0.15,-0.3 -0.17,-0.48 -0.06,-0.68 0.1,-1.31 0.41,-1.91 0.02,-0.04 0.04,-0.08 0.09,-0.09 0.04,0.1 -0.02,0.2 -0.04,0.3 -0.11,0.28 -0.19,0.57 -0.22,0.88 -0.01,0.13 0,0.26 0.04,0.38 0.06,0.24 0.23,0.39 0.47,0.44 0.58,0.13 1.3,-0.02 1.66,-0.69 0.19,-0.35 0.3,-0.71 0.3,-1.11 0,-0.17 0,-0.33 0.01,-0.51 0.01,-0.2 0.06,-0.24 0.25,-0.19 0.08,0.01 0.15,0.01 0.23,-0.02 0.12,-0.06 0.2,-0.19 0.35,-0.1 0.01,0.01 0.06,-0.02 0.07,-0.04 0.06,-0.07 0.09,-0.11 0.19,-0.11 0.15,0 0.18,-0.05 0.14,-0.2 -0.06,-0.25 0,-0.46 0.13,-0.66 0.02,-0.03 0.04,-0.07 0.08,-0.07 0.06,0.02 0.05,0.07 0.06,0.11 0.05,0.16 0.14,0.22 0.29,0.22 0.15,0 0.24,-0.08 0.28,-0.24 0.02,-0.08 0.02,-0.15 0.02,-0.23 0,-0.23 0.01,-0.45 0,-0.68 -0.01,-0.22 0.03,-0.43 0.14,-0.63 0.07,-0.14 0.13,-0.29 0.2,-0.42 0.1,0.05 0.04,0.12 0.04,0.18l0 0z" inkscape:connector-curvature="0"/>
  <path id="path32" class="fil1" d="M16.24 32.62c-0.54,0 -0.91,-0.33 -0.96,-0.87 -0.03,-0.36 0.04,-0.71 0.15,-1.04 0.13,-0.36 0.32,-0.69 0.51,-1.03 0.02,-0.02 0.03,-0.06 0.09,-0.06 0.02,0.12 -0.03,0.21 -0.07,0.3 -0.1,0.24 -0.22,0.48 -0.3,0.73 -0.05,0.12 -0.08,0.25 -0.08,0.38 0,0.45 0.26,0.74 0.7,0.78 0.85,0.09 1.44,-0.36 1.76,-1.07 0.03,-0.07 0.04,-0.15 0.05,-0.23 0.01,-0.19 0.04,-0.38 0.03,-0.57 -0.02,-0.41 0.16,-0.73 0.35,-1.06 0.05,0 0.05,0.04 0.05,0.06 -0.06,0.52 -0.07,1.04 -0.19,1.56 -0.13,0.52 -0.25,0.76 -0.49,1.21 -0.04,0.07 -0.25,0.36 -0.29,0.4 -0.13,0.14 -0.29,0.29 -0.47,0.36 -0.24,0.13 -0.57,0.15 -0.84,0.15z" inkscape:connector-curvature="0"/>
  <path id="path42" class="fil1" d="M12.54 24.48c-0.03,0.17 -0.11,0.32 -0.21,0.45 -0.36,0.45 -0.81,0.75 -1.35,0.91 -0.3,0.08 -0.61,0.13 -0.92,0.12 -0.4,-0.01 -0.75,0.09 -1.03,0.4 -0.02,0.02 -0.05,0.05 -0.07,0.07 -0.07,0.03 -0.12,0 -0.11,-0.07 0.01,-0.07 0.03,-0.15 0.06,-0.21 0.19,-0.39 0.49,-0.69 0.87,-0.88 0.16,-0.08 0.34,-0.1 0.52,-0.11 0.33,-0.01 0.66,-0.04 0.99,-0.12 0.35,-0.09 0.67,-0.25 0.94,-0.5 0.05,-0.06 0.11,-0.1 0.18,-0.15 0.02,-0.02 0.06,-0.05 0.09,-0.03 0.05,0.04 0.05,0.08 0.04,0.12l0 0z" inkscape:connector-curvature="0"/>
  <path id="path56" class="fil1" d="M22.52 27.76c-0.04,0.39 -0.08,0.77 -0.15,1.15 -0.03,0.26 -0.04,0.53 -0.03,0.8 0.02,0.48 0.46,0.54 0.73,0.38 0.04,-0.03 0.1,-0.06 0.13,-0.11 0.1,-0.09 0.21,-0.15 0.36,-0.14 0.12,0.02 0.19,-0.06 0.24,-0.16 0.03,-0.04 0.02,-0.12 0.07,-0.11 0.19,0.01 0.21,-0.13 0.26,-0.26 0.01,-0.02 0.02,-0.05 0.05,-0.05 0.04,0.27 -0.1,0.6 -0.32,0.72 -0.08,0.04 -0.14,0.08 -0.19,0.15 -0.06,0.09 -0.15,0.15 -0.26,0.14 -0.13,-0.02 -0.22,0.03 -0.3,0.13 -0.07,0.07 -0.12,0.14 -0.18,0.21 -0.05,0.07 -0.12,0.14 -0.2,0.19 -0.24,0.14 -0.51,0.07 -0.63,-0.18 -0.09,-0.19 -0.13,-0.39 -0.11,-0.6 0.07,-0.59 0.14,-1.17 0.22,-1.76 0.03,-0.22 0.14,-0.42 0.24,-0.62 0.14,0 0.08,0.07 0.07,0.12l0 0z" inkscape:connector-curvature="0"/>
  <path id="path58" class="fil1" d="M6.11 26.14c0.07,-0.25 0.22,-0.45 0.42,-0.62 0.46,-0.42 0.95,-0.79 1.44,-1.19 0.65,-0.53 1.24,-1.12 1.84,-1.71 0.04,-0.01 0.06,0 0.05,0.05 -0.2,0.48 -0.53,0.86 -0.9,1.21 -0.6,0.56 -1.23,1.07 -1.89,1.57 -0.3,0.23 -0.6,0.46 -0.9,0.69 -0.02,0.03 -0.04,0.02 -0.06,0l0 0z" inkscape:connector-curvature="0"/>
  <path id="path62" class="fil1" d="M19.51 27.76c-0.06,0.36 -0.13,0.72 -0.19,1.08 -0.05,0.27 -0.09,0.55 -0.06,0.84 0.01,0.15 0.05,0.27 0.17,0.36 0.09,0.06 0.14,0.05 0.18,-0.05 0.04,-0.08 0.06,-0.16 0.09,-0.24 0.02,-0.06 0.07,-0.06 0.11,-0.02 0.08,0.06 0.12,0.14 0.12,0.24 0,0.26 -0.06,0.5 -0.22,0.71 -0.19,0.24 -0.46,0.23 -0.64,-0.01 -0.06,-0.09 -0.1,-0.17 -0.12,-0.29 -0.05,-0.29 -0.05,-0.58 0.02,-0.87 0.05,-0.29 0.11,-0.59 0.15,-0.88 0.04,-0.36 0.18,-0.68 0.36,-1 0.09,0.02 0.04,0.09 0.03,0.13l0 0z" inkscape:connector-curvature="0"/>
  <path id="path68" class="fil1" d="M6.84 29.19c0.07,0.06 0.12,0.11 0.16,0.15 0.29,0.22 0.35,0.52 0.3,0.86 -0.05,0.28 -0.17,0.53 -0.32,0.77 -0.03,0.04 -0.06,0.07 -0.08,0.1 -0.22,0.19 -0.49,0.26 -0.77,0.36 -0.01,-0.12 0.07,-0.17 0.12,-0.21 0.16,-0.14 0.32,-0.27 0.47,-0.42 0.21,-0.22 0.22,-0.3 0.04,-0.55 -0.06,-0.08 -0.14,-0.15 -0.21,-0.21 -0.04,-0.04 -0.07,-0.07 -0.04,-0.14 0.1,-0.23 0.19,-0.47 0.33,-0.71z" inkscape:connector-curvature="0"/>
  <path id="path74" class="fil1" d="M8.2 28.04c0,0.28 0,0.56 0,0.84 0,0.2 -0.02,0.41 -0.04,0.61 -0.03,0.44 -0.18,0.84 -0.38,1.22 -0.02,0.03 -0.03,0.08 -0.09,0.08 -0.04,-0.03 -0.03,-0.07 -0.02,-0.11 0.13,-0.54 0.16,-1.08 0.19,-1.63 0.01,-0.35 0.18,-0.68 0.34,-1.01l0 0z" inkscape:connector-curvature="0"/>
  <path id="path76" class="fil1" d="M10.06 28.03c0.06,0.14 0.02,0.25 0.02,0.37 0,0.3 -0.02,0.6 -0.02,0.89 -0.01,0.48 -0.14,0.92 -0.35,1.36 -0.03,0.06 -0.06,0.13 -0.13,0.15 -0.05,-0.07 -0.02,-0.12 -0.02,-0.17 0.12,-0.51 0.15,-1.03 0.17,-1.55 0.01,-0.37 0.18,-0.7 0.33,-1.05l0 0z" inkscape:connector-curvature="0"/>
  <path id="path78" class="fil1" d="M9.24 29.36c0.05,0.07 0.03,0.13 0.02,0.18 -0.06,0.41 -0.14,0.81 -0.29,1.19 -0.17,0.48 -0.58,0.62 -1.02,0.71 -0.04,0.01 -0.07,0.02 -0.09,-0.03 -0.02,-0.03 0,-0.07 0.03,-0.09 0.07,-0.06 0.13,-0.13 0.2,-0.19 0.19,-0.13 0.35,-0.28 0.51,-0.45 0.14,-0.15 0.25,-0.32 0.32,-0.52 0.07,-0.21 0.14,-0.43 0.21,-0.64 0.03,-0.06 0.04,-0.12 0.11,-0.16z" inkscape:connector-curvature="0"/>
  <path id="path80" class="fil1" d="M21.61 28.93c-0.08,0.43 -0.15,0.89 -0.35,1.31 -0.1,0.23 -0.27,0.39 -0.51,0.48 -0.15,0.06 -0.3,0.11 -0.47,0.13 -0.03,0 -0.07,0.01 -0.09,-0.03 -0.01,-0.03 0.01,-0.07 0.03,-0.09 0.06,-0.07 0.13,-0.13 0.2,-0.19 0.09,-0.07 0.19,-0.13 0.27,-0.21 0.28,-0.24 0.5,-0.51 0.6,-0.88 0.05,-0.19 0.12,-0.38 0.19,-0.58 0.02,-0.04 0.01,-0.11 0.08,-0.1 0.06,0.03 0.05,0.08 0.05,0.16l0 0z" inkscape:connector-curvature="0"/>
  <path id="path82" class="fil1" d="M17.37 30.04c0,0.28 -0.14,0.42 -0.29,0.57 -0.04,0.04 -0.08,0.03 -0.12,0 -0.04,-0.03 -0.09,-0.07 -0.13,-0.1 -0.32,-0.23 -0.31,-0.12 -0.13,-0.52 0.04,-0.1 0.1,-0.19 0.16,-0.29 0.04,-0.08 0.09,-0.1 0.16,-0.04 0.16,0.09 0.35,0.19 0.35,0.38l0 0z" inkscape:connector-curvature="0"/>
  <path id="path88" class="fil1" d="M21.24 26.77c0.07,0.05 0.11,0.07 0.15,0.11 0.31,0.24 0.29,0.65 -0.03,0.89 -0.05,0.03 -0.09,0.04 -0.13,0.01 -0.01,-0.01 -0.02,-0.02 -0.04,-0.03 -0.34,-0.24 -0.34,-0.24 -0.16,-0.62 0.05,-0.11 0.13,-0.23 0.21,-0.36z" inkscape:connector-curvature="0"/>
  <path id="path90" class="fil1" d="M14.08 26.1c0.07,0.05 0.13,0.09 0.17,0.13 0.29,0.25 0.26,0.66 -0.06,0.88 -0.05,0.03 -0.11,0.04 -0.15,0 -0.01,-0.01 -0.01,-0.01 -0.02,-0.01 -0.33,-0.24 -0.34,-0.26 -0.15,-0.63 0.06,-0.12 0.13,-0.23 0.21,-0.37z" inkscape:connector-curvature="0"/>
  <path id="path92" class="fil1" d="M12.85 26.89c-0.05,0.19 -0.13,0.37 -0.28,0.5 -0.05,0.03 -0.09,0.04 -0.14,0.01 -0.01,0 -0.01,-0.01 -0.01,-0.01 -0.33,-0.2 -0.36,-0.27 -0.18,-0.62 0.03,-0.08 0.08,-0.15 0.12,-0.22 0.11,-0.18 0.11,-0.18 0.28,-0.03 0.1,0.09 0.21,0.2 0.21,0.37l0 0z" inkscape:connector-curvature="0"/>
  <path id="path94" class="fil1" d="M5.45 32.03c-0.03,0.18 -0.11,0.35 -0.26,0.49 -0.06,0.04 -0.1,0.05 -0.15,0.01 -0.01,0 -0.01,-0.01 -0.02,-0.01 -0.35,-0.23 -0.36,-0.24 -0.17,-0.62 0.04,-0.09 0.09,-0.18 0.14,-0.26 0.07,-0.11 0.07,-0.11 0.19,-0.02 0.13,0.09 0.27,0.18 0.27,0.41l0 0z" inkscape:connector-curvature="0"/>
  <path id="path96" class="fil1" d="M4.51 27.19c0.25,0.27 0.23,0.61 -0.06,0.85 -0.06,0.06 -0.11,0.07 -0.18,0.01 -0.07,-0.06 -0.14,-0.1 -0.22,-0.17 -0.14,-0.05 -0.15,-0.15 -0.1,-0.26 0.06,-0.13 0.12,-0.27 0.19,-0.39 0.13,-0.21 0.19,-0.22 0.37,-0.04z" inkscape:connector-curvature="0"/>
  <path id="path98" class="fil1" d="M4.29 31.57c0.13,0.07 0.22,0.15 0.3,0.26 0.07,0.09 0.1,0.18 0.07,0.3 -0.04,0.15 -0.11,0.29 -0.22,0.41 -0.07,0.07 -0.13,0.07 -0.22,0.01 -0.32,-0.24 -0.33,-0.24 -0.16,-0.6 0.07,-0.14 0.14,-0.26 0.23,-0.38l0 0z" inkscape:connector-curvature="0"/>
  <path id="path100" class="fil1" d="M3.58 26.87c-0.01,-0.18 0.11,-0.31 0.18,-0.47 0.01,-0.04 0.04,-0.07 0.06,-0.11 0.09,-0.16 0.09,-0.16 0.27,-0.06 0.29,0.25 0.31,0.31 0.16,0.64l0 0c-0.01,0.01 -0.01,0.02 -0.02,0.03 -0.09,0.3 -0.25,0.35 -0.49,0.16 -0.06,-0.06 -0.12,-0.12 -0.16,-0.19z" inkscape:connector-curvature="0"/>
  <path id="path102" class="fil1" d="M12.7 28.18c-0.02,0.17 -0.12,0.34 -0.27,0.48 -0.05,0.05 -0.1,0.04 -0.16,0.01 -0.34,-0.22 -0.35,-0.27 -0.17,-0.62 0.05,-0.1 0.11,-0.21 0.17,-0.31 0.02,-0.02 0.04,-0.05 0.08,-0.03 0.15,0.03 0.35,0.29 0.35,0.47l0 0z" inkscape:connector-curvature="0"/>
  <path id="path104" class="fil1" d="M8.85 27.25c0.12,0.06 0.22,0.15 0.31,0.24 0.06,0.08 0.08,0.15 0.07,0.24 -0.02,0.2 -0.12,0.37 -0.26,0.5 -0.04,0.04 -0.09,0.05 -0.15,0.01 -0.01,0 -0.01,-0.01 -0.01,-0.01 -0.34,-0.22 -0.36,-0.26 -0.18,-0.62 0.06,-0.12 0.12,-0.25 0.22,-0.36z" inkscape:connector-curvature="0"/>
  <path id="path106" class="fil1" d="M3.32 27.96c-0.15,-0.16 -0.16,-0.16 -0.06,-0.37 0.07,-0.16 0.15,-0.31 0.23,-0.47 0.04,-0.04 0.08,-0.04 0.12,0l0 0c0.02,0 0.03,0.01 0.05,0.03l0 0c0.02,0.01 0.03,0.03 0.04,0.04l0 0c0.15,0.08 0.29,0.18 0.25,0.38 -0.01,0.04 -0.04,0.07 -0.05,0.11 -0.01,0.02 -0.03,0.02 -0.05,0.03 -0.01,0 -0.05,-0.03 -0.03,0.02 0.02,0.04 0.03,0.07 0.03,0.12 -0.01,0.03 -0.01,0.07 -0.03,0.1 -0.16,0.27 -0.3,0.27 -0.5,0.01l0 0z" inkscape:connector-curvature="0"/>
  <path id="path118" class="fil1" d="M4.25 26.86c0.01,-0.04 0.02,-0.07 0.03,-0.1 0.06,-0.17 0.03,-0.32 -0.1,-0.44 -0.03,-0.03 -0.05,-0.06 -0.08,-0.1 0.22,0.09 0.29,0.2 0.26,0.4 0,0.02 0,0.03 0,0.05 0,0.1 -0.04,0.15 -0.11,0.19l0 0z" inkscape:connector-curvature="0"/>
  <path id="path120" class="fil1" d="M14.39 29.29c-0.04,0.08 -0.11,0.12 -0.22,0.15 0.06,-0.13 0.12,-0.25 0.17,-0.37 0.02,0.07 -0.03,0.16 0.05,0.22z" inkscape:connector-curvature="0"/>
  <path id="path132" class="fil1" d="M22.52 27.76c-0.01,-0.04 0.01,-0.11 -0.04,-0.13 0,-0.06 0.02,-0.1 0.05,-0.14 0.04,0.14 0.04,0.14 -0.01,0.27z" inkscape:connector-curvature="0"/>
  <path id="path136" class="fil1" d="M19.51 27.76c-0.01,-0.04 0.01,-0.1 -0.03,-0.13 0.02,-0.04 0.03,-0.07 0.06,-0.14 0.03,0.13 0.03,0.2 -0.03,0.27z" inkscape:connector-curvature="0"/>
  <path id="path138" class="fil1" d="M6.01 26.79c-0.03,-0.05 0.01,-0.12 -0.05,-0.17 0.03,-0.04 0.06,-0.07 0.07,0 0.02,0.05 0.01,0.12 -0.02,0.17z" inkscape:connector-curvature="0"/>
  <path id="path140" class="fil1" d="M14.35 29.03c0,-0.09 -0.01,-0.17 -0.01,-0.26 0.07,0.08 0.06,0.17 0.01,0.26z" inkscape:connector-curvature="0"/>
  <path id="path142" class="fil1" d="M13.8 27.59c-0.01,-0.02 -0.01,-0.07 -0.04,-0.09 0.01,-0.04 0.02,-0.08 0.07,-0.09 0.02,0.07 0.02,0.12 -0.03,0.18z" inkscape:connector-curvature="0"/>
  <path id="path152" class="fil1" d="M14.6 29.03c-0.01,0.05 -0.04,0.1 -0.09,0.12 0.01,-0.06 0.03,-0.1 0.09,-0.12z" inkscape:connector-curvature="0"/>
  <path id="path156" class="fil1" d="M9.86 22.67c-0.02,-0.01 -0.03,-0.02 -0.05,-0.04 0.01,-0.03 0.04,-0.07 0.06,-0.05 0.05,0.02 0.02,0.07 -0.01,0.09l0 0z" inkscape:connector-curvature="0"/>
  <path id="path158" class="fil1" d="M3.61 27.13c-0.03,-0.01 -0.08,-0.01 -0.12,0 0.05,-0.07 0.09,-0.07 0.12,0z" inkscape:connector-curvature="0"/>
  <path id="path164" class="fil1" d="M6.11 26.14c0.02,0 0.04,0 0.06,0.01 0,0.03 -0.03,0.05 -0.06,0.04 -0.02,-0.01 -0.02,-0.03 0,-0.05z" inkscape:connector-curvature="0"/>
  <path id="path170" class="fil1" d="M14.51 29.15c0,0.03 -0.02,0.04 -0.04,0.05 0.01,-0.02 0.03,-0.03 0.04,-0.05z" inkscape:connector-curvature="0"/>
  <path id="path172" class="fil1" d="M17.26 32.29c0.01,-0.03 0.03,-0.04 0.05,-0.05 -0.01,0.03 -0.03,0.04 -0.05,0.05z" inkscape:connector-curvature="0"/>
  <path id="path174" class="fil1" d="M14.43 29.24c-0.01,0.03 -0.02,0.04 -0.05,0.05 0.01,-0.03 0.03,-0.04 0.05,-0.05z" inkscape:connector-curvature="0"/>
  <path id="path176" class="fil1" d="M17.77 31.74c0,-0.03 0.02,-0.04 0.05,-0.05 -0.01,0.02 -0.02,0.03 -0.05,0.05z" inkscape:connector-curvature="0"/>
  <path id="path186" class="fil1" d="M3.71 27.2c-0.02,0 -0.04,-0.01 -0.04,-0.03 0.01,0.01 0.02,0.02 0.04,0.03z" inkscape:connector-curvature="0"/>
  <path id="path188" class="fil1" d="M3.67 27.17c-0.03,0 -0.05,-0.02 -0.06,-0.04 0.03,0 0.05,0.01 0.06,0.04z" inkscape:connector-curvature="0"/>
  <path id="path190" class="fil1" d="M14.47 29.2c0,0.03 -0.02,0.04 -0.04,0.04 0.01,-0.02 0.02,-0.03 0.04,-0.04z" inkscape:connector-curvature="0"/>
  <path id="path214" class="fil1" d="M3.89 27.72c0,0.05 -0.01,0.09 -0.05,0.13 -0.08,-0.05 -0.05,-0.15 -0.08,-0.23 0.08,0 0.08,0.09 0.13,0.1z" inkscape:connector-curvature="0"/>
  <path id="path216" class="fil1" d="M3.91 27.63c0.01,0.03 0,0.07 -0.03,0.09 0,-0.03 0,-0.07 0.03,-0.09z" inkscape:connector-curvature="0"/>
 </g>
</svg>
